  0
SECTION
  2
HEADER
  9
$ACADVER
  1
AC1024
  9
$ACADMAINTVER
 70
     6
  9
$DWGCODEPAGE
  3
ANSI_1254
  9
$LASTSAVEDBY
  1
Mehmet
  9
$INSBASE
 10
0.0
 20
0.0
 30
0.0
  9
$EXTMIN
 10
408622.7835000001
 20
4589850.777744683
 30
122.0
  9
$EXTMAX
 10
409064.5167405187
 20
4590240.977600001
 30
219.6976107489318
  9
$LIMMIN
 10
0.0
 20
0.0
  9
$LIMMAX
 10
420.0
 20
297.0
  9
$ORTHOMODE
 70
     0
  9
$REGENMODE
 70
     1
  9
$FILLMODE
 70
     1
  9
$QTEXTMODE
 70
     0
  9
$MIRRTEXT
 70
     1
  9
$LTSCALE
 40
1.0
  9
$ATTMODE
 70
     1
  9
$TEXTSIZE
 40
2.5
  9
$TRACEWID
 40
1.0
  9
$TEXTSTYLE
  7
Standard
  9
$CLAYER
  8
GEOFENCE
  9
$CELTYPE
  6
ByLayer
  9
$CECOLOR
 62
   256
  9
$CELTSCALE
 40
1.0
  9
$DISPSILH
 70
     0
  9
$DIMSCALE
 40
1.0
  9
$DIMASZ
 40
2.5
  9
$DIMEXO
 40
0.625
  9
$DIMDLI
 40
3.75
  9
$DIMRND
 40
0.0
  9
$DIMDLE
 40
0.0
  9
$DIMEXE
 40
1.25
  9
$DIMTP
 40
0.0
  9
$DIMTM
 40
0.0
  9
$DIMTXT
 40
2.5
  9
$DIMCEN
 40
2.5
  9
$DIMTSZ
 40
0.0
  9
$DIMTOL
 70
     0
  9
$DIMLIM
 70
     0
  9
$DIMTIH
 70
     0
  9
$DIMTOH
 70
     0
  9
$DIMSE1
 70
     0
  9
$DIMSE2
 70
     0
  9
$DIMTAD
 70
     1
  9
$DIMZIN
 70
     8
  9
$DIMBLK
  1

  9
$DIMASO
 70
     1
  9
$DIMSHO
 70
     1
  9
$DIMPOST
  1

  9
$DIMAPOST
  1

  9
$DIMALT
 70
     0
  9
$DIMALTD
 70
     3
  9
$DIMALTF
 40
0.03937007874016
  9
$DIMLFAC
 40
1.0
  9
$DIMTOFL
 70
     1
  9
$DIMTVP
 40
0.0
  9
$DIMTIX
 70
     0
  9
$DIMSOXD
 70
     0
  9
$DIMSAH
 70
     0
  9
$DIMBLK1
  1

  9
$DIMBLK2
  1

  9
$DIMSTYLE
  2
ISO-25
  9
$DIMCLRD
 70
     0
  9
$DIMCLRE
 70
     0
  9
$DIMCLRT
 70
     0
  9
$DIMTFAC
 40
1.0
  9
$DIMGAP
 40
0.625
  9
$DIMJUST
 70
     0
  9
$DIMSD1
 70
     0
  9
$DIMSD2
 70
     0
  9
$DIMTOLJ
 70
     0
  9
$DIMTZIN
 70
     8
  9
$DIMALTZ
 70
     0
  9
$DIMALTTZ
 70
     0
  9
$DIMUPT
 70
     0
  9
$DIMDEC
 70
     2
  9
$DIMTDEC
 70
     2
  9
$DIMALTU
 70
     2
  9
$DIMALTTD
 70
     3
  9
$DIMTXSTY
  7
Standard
  9
$DIMAUNIT
 70
     0
  9
$DIMADEC
 70
     0
  9
$DIMALTRND
 40
0.0
  9
$DIMAZIN
 70
     0
  9
$DIMDSEP
 70
    44
  9
$DIMATFIT
 70
     3
  9
$DIMFRAC
 70
     0
  9
$DIMLDRBLK
  1

  9
$DIMLUNIT
 70
     2
  9
$DIMLWD
 70
    -2
  9
$DIMLWE
 70
    -2
  9
$DIMTMOVE
 70
     0
  9
$DIMFXL
 40
1.0
  9
$DIMFXLON
 70
     0
  9
$DIMJOGANG
 40
0.7853981633974483
  9
$DIMTFILL
 70
     0
  9
$DIMTFILLCLR
 70
     0
  9
$DIMARCSYM
 70
     0
  9
$DIMLTYPE
  6

  9
$DIMLTEX1
  6

  9
$DIMLTEX2
  6

  9
$DIMTXTDIRECTION
 70
     0
  9
$LUNITS
 70
     2
  9
$LUPREC
 70
     4
  9
$SKETCHINC
 40
1.0
  9
$FILLETRAD
 40
10.0
  9
$AUNITS
 70
     0
  9
$AUPREC
 70
     0
  9
$MENU
  1
.
  9
$ELEVATION
 40
0.0
  9
$PELEVATION
 40
0.0
  9
$THICKNESS
 40
0.0
  9
$LIMCHECK
 70
     0
  9
$CHAMFERA
 40
10.0
  9
$CHAMFERB
 40
10.0
  9
$CHAMFERC
 40
20.0
  9
$CHAMFERD
 40
0.0
  9
$SKPOLY
 70
     0
  9
$TDCREATE
 40
2457967.773947431
  9
$TDUCREATE
 40
2457967.648947431
  9
$TDUPDATE
 40
2457968.476876181
  9
$TDUUPDATE
 40
2457968.351876181
  9
$TDINDWG
 40
0.0072375347
  9
$TDUSRTIMER
 40
2457968.351109965
  9
$USRTIMER
 70
     1
  9
$ANGBASE
 50
0.0
  9
$ANGDIR
 70
     0
  9
$PDMODE
 70
     0
  9
$PDSIZE
 40
0.0
  9
$PLINEWID
 40
0.0
  9
$SPLFRAME
 70
     0
  9
$SPLINETYPE
 70
     6
  9
$SPLINESEGS
 70
     8
  9
$HANDSEED
  5
1BC
  9
$SURFTAB1
 70
     6
  9
$SURFTAB2
 70
     6
  9
$SURFTYPE
 70
     6
  9
$SURFU
 70
     6
  9
$SURFV
 70
     6
  9
$UCSBASE
  2

  9
$UCSNAME
  2

  9
$UCSORG
 10
0.0
 20
0.0
 30
0.0
  9
$UCSXDIR
 10
1.0
 20
0.0
 30
0.0
  9
$UCSYDIR
 10
0.0
 20
1.0
 30
0.0
  9
$UCSORTHOREF
  2

  9
$UCSORTHOVIEW
 70
     1
  9
$UCSORGTOP
 10
0.0
 20
0.0
 30
0.0
  9
$UCSORGBOTTOM
 10
0.0
 20
0.0
 30
0.0
  9
$UCSORGLEFT
 10
0.0
 20
0.0
 30
0.0
  9
$UCSORGRIGHT
 10
0.0
 20
0.0
 30
0.0
  9
$UCSORGFRONT
 10
0.0
 20
0.0
 30
0.0
  9
$UCSORGBACK
 10
0.0
 20
0.0
 30
0.0
  9
$PUCSBASE
  2

  9
$PUCSNAME
  2

  9
$PUCSORG
 10
0.0
 20
0.0
 30
0.0
  9
$PUCSXDIR
 10
1.0
 20
0.0
 30
0.0
  9
$PUCSYDIR
 10
0.0
 20
1.0
 30
0.0
  9
$PUCSORTHOREF
  2

  9
$PUCSORTHOVIEW
 70
     0
  9
$PUCSORGTOP
 10
0.0
 20
0.0
 30
0.0
  9
$PUCSORGBOTTOM
 10
0.0
 20
0.0
 30
0.0
  9
$PUCSORGLEFT
 10
0.0
 20
0.0
 30
0.0
  9
$PUCSORGRIGHT
 10
0.0
 20
0.0
 30
0.0
  9
$PUCSORGFRONT
 10
0.0
 20
0.0
 30
0.0
  9
$PUCSORGBACK
 10
0.0
 20
0.0
 30
0.0
  9
$USERI1
 70
     0
  9
$USERI2
 70
     0
  9
$USERI3
 70
     0
  9
$USERI4
 70
     0
  9
$USERI5
 70
     0
  9
$USERR1
 40
0.0
  9
$USERR2
 40
0.0
  9
$USERR3
 40
0.0
  9
$USERR4
 40
0.0
  9
$USERR5
 40
0.0
  9
$WORLDVIEW
 70
     1
  9
$SHADEDGE
 70
     3
  9
$SHADEDIF
 70
    70
  9
$TILEMODE
 70
     1
  9
$MAXACTVP
 70
    64
  9
$PINSBASE
 10
0.0
 20
0.0
 30
0.0
  9
$PLIMCHECK
 70
     0
  9
$PEXTMIN
 10
1.000000000000000E+20
 20
1.000000000000000E+20
 30
1.000000000000000E+20
  9
$PEXTMAX
 10
-1.000000000000000E+20
 20
-1.000000000000000E+20
 30
-1.000000000000000E+20
  9
$PLIMMIN
 10
0.0
 20
0.0
  9
$PLIMMAX
 10
0.0
 20
0.0
  9
$UNITMODE
 70
     0
  9
$VISRETAIN
 70
     1
  9
$PLINEGEN
 70
     0
  9
$PSLTSCALE
 70
     1
  9
$TREEDEPTH
 70
  3020
  9
$CMLSTYLE
  2
Standard
  9
$CMLJUST
 70
     0
  9
$CMLSCALE
 40
20.0
  9
$PROXYGRAPHICS
 70
     1
  9
$MEASUREMENT
 70
     1
  9
$CELWEIGHT
370
    -1
  9
$ENDCAPS
280
     0
  9
$JOINSTYLE
280
     0
  9
$LWDISPLAY
290
     0
  9
$INSUNITS
 70
     4
  9
$HYPERLINKBASE
  1

  9
$STYLESHEET
  1

  9
$XEDIT
290
     1
  9
$CEPSNTYPE
380
     0
  9
$PSTYLEMODE
290
     1
  9
$FINGERPRINTGUID
  2
{5306116D-4AAA-47DC-9D06-74516C532074}
  9
$VERSIONGUID
  2
{FAEB1C32-E019-11D5-929B-00C0DF256EC4}
  9
$EXTNAMES
290
     1
  9
$PSVPSCALE
 40
0.0
  9
$OLESTARTUP
290
     0
  9
$SORTENTS
280
   127
  9
$INDEXCTL
280
     0
  9
$HIDETEXT
280
     1
  9
$XCLIPFRAME
280
     2
  9
$HALOGAP
280
     0
  9
$OBSCOLOR
 70
   257
  9
$OBSLTYPE
280
     0
  9
$INTERSECTIONDISPLAY
280
     0
  9
$INTERSECTIONCOLOR
 70
   257
  9
$DIMASSOC
280
     2
  9
$PROJECTNAME
  1

  9
$CAMERADISPLAY
290
     0
  9
$LENSLENGTH
 40
50.0
  9
$CAMERAHEIGHT
 40
0.0
  9
$STEPSPERSEC
 40
2.0
  9
$STEPSIZE
 40
6.0
  9
$3DDWFPREC
 40
2.0
  9
$PSOLWIDTH
 40
5.0
  9
$PSOLHEIGHT
 40
80.0
  9
$LOFTANG1
 40
1.570796326794897
  9
$LOFTANG2
 40
1.570796326794897
  9
$LOFTMAG1
 40
0.0
  9
$LOFTMAG2
 40
0.0
  9
$LOFTPARAM
 70
     7
  9
$LOFTNORMALS
280
     1
  9
$LATITUDE
 40
37.795
  9
$LONGITUDE
 40
-122.394
  9
$NORTHDIRECTION
 40
0.0
  9
$TIMEZONE
 70
 -8000
  9
$LIGHTGLYPHDISPLAY
280
     1
  9
$TILEMODELIGHTSYNCH
280
     1
  9
$SOLIDHIST
280
     1
  9
$SHOWHIST
280
     1
  9
$DWFFRAME
280
     2
  9
$DGNFRAME
280
     2
  9
$REALWORLDSCALE
290
     1
  9
$INTERFERECOLOR
 62
   256
  9
$CSHADOW
280
     0
  9
$SHADOWPLANELOCATION
 40
0.0
  0
ENDSEC
  0
SECTION
  2
CLASSES
  0
CLASS
  1
ACDBDICTIONARYWDFLT
  2
AcDbDictionaryWithDefault
  3
ObjectDBX Classes
 90
        0
 91
        6
280
     0
281
     0
  0
CLASS
  1
VISUALSTYLE
  2
AcDbVisualStyle
  3
ObjectDBX Classes
 90
     4095
 91
        6
280
     0
281
     0
  0
CLASS
  1
MATERIAL
  2
AcDbMaterial
  3
ObjectDBX Classes
 90
     1153
 91
        6
280
     0
281
     0
  0
CLASS
  1
SCALE
  2
AcDbScale
  3
ObjectDBX Classes
 90
     1153
 91
        6
280
     0
281
     0
  0
CLASS
  1
TABLESTYLE
  2
AcDbTableStyle
  3
ObjectDBX Classes
 90
     4095
 91
        6
280
     0
281
     0
  0
CLASS
  1
MLEADERSTYLE
  2
AcDbMLeaderStyle
  3
ACDB_MLEADERSTYLE_CLASS
 90
     4095
 91
        6
280
     0
281
     0
  0
CLASS
  1
SUN
  2
AcDbSun
  3
SCENEOE
 90
     1153
 91
        6
280
     0
281
     0
  0
CLASS
  1
RASTERVARIABLES
  2
AcDbRasterVariables
  3
ISM
 90
        0
 91
        6
280
     0
281
     0
  0
CLASS
  1
DICTIONARYVAR
  2
AcDbDictionaryVar
  3
ObjectDBX Classes
 90
        0
 91
        6
280
     0
281
     0
  0
CLASS
  1
CELLSTYLEMAP
  2
AcDbCellStyleMap
  3
ObjectDBX Classes
 90
     1152
 91
        6
280
     0
281
     0
  0
ENDSEC
  0
SECTION
  2
TABLES
  0
TABLE
  2
VPORT
  5
8
330
0
100
AcDbSymbolTable
 70
     1
  0
VPORT
  5
29
330
8
100
AcDbSymbolTableRecord
100
AcDbViewportTableRecord
  2
*Active
 70
     0
 10
0.0
 20
0.0
 11
1.0
 21
1.0
 12
-3081007.236032029
 22
-2378073.514356887
 13
0.0
 23
0.0
 14
10.0
 24
10.0
 15
10.0
 25
10.0
 16
0.0
 26
0.0
 36
1.0
 17
3489671.17796543
 27
6968302.003471207
 37
-2467177.36084914
 40
10.85932666059009
 41
2.265988372093023
 42
50.0
 43
0.0
 44
0.0
 50
0.0
 51
0.0
 71
    16
 72
   100
 73
     1
 74
     3
 75
     0
 76
     0
 77
     0
 78
     0
281
     0
 65
     1
110
0.0
120
0.0
130
0.0
111
1.0
121
0.0
131
0.0
112
0.0
122
1.0
132
0.0
 79
     1
146
0.0
348
2F
 60
     3
 61
     5
292
     1
282
     1
141
0.0
142
0.0
 63
   250
361
11D
  0
ENDTAB
  0
TABLE
  2
LTYPE
  5
5
330
0
100
AcDbSymbolTable
 70
     1
  0
LTYPE
  5
14
330
5
100
AcDbSymbolTableRecord
100
AcDbLinetypeTableRecord
  2
ByBlock
 70
     0
  3

 72
    65
 73
     0
 40
0.0
  0
LTYPE
  5
15
330
5
100
AcDbSymbolTableRecord
100
AcDbLinetypeTableRecord
  2
ByLayer
 70
     0
  3

 72
    65
 73
     0
 40
0.0
  0
LTYPE
  5
16
330
5
100
AcDbSymbolTableRecord
100
AcDbLinetypeTableRecord
  2
Continuous
 70
     0
  3
Solid line
 72
    65
 73
     0
 40
0.0
  0
ENDTAB
  0
TABLE
  2
LAYER
  5
2
102
{ACAD_XDICTIONARY
360
11F
102
}
330
0
100
AcDbSymbolTable
 70
    19
  0
LAYER
  5
10
330
2
100
AcDbSymbolTableRecord
100
AcDbLayerTableRecord
  2
0
 70
     0
 62
     5
  6
Continuous
370
     0
390
F
347
3E
  0
LAYER
  5
3F
330
2
100
AcDbSymbolTableRecord
100
AcDbLayerTableRecord
  2
OTOCAD_NOKTA
 70
     0
 62
    40
  6
Continuous
370
     0
390
F
347
3E
  0
LAYER
  5
40
330
2
100
AcDbSymbolTableRecord
100
AcDbLayerTableRecord
  2
OTOCAD_LAGiMi
 70
     0
 62
     4
  6
Continuous
370
     0
390
F
347
3E
  0
LAYER
  5
41
330
2
100
AcDbSymbolTableRecord
100
AcDbLayerTableRecord
  2
OTOCAD_DESENDRE
 70
     0
 62
     1
  6
Continuous
370
     0
390
F
347
3E
  0
LAYER
  5
42
330
2
100
AcDbSymbolTableRecord
100
AcDbLayerTableRecord
  2
OTOCAD_100_LAGiMi
 70
     0
 62
   151
  6
Continuous
370
     0
390
F
347
3E
  0
LAYER
  5
43
330
2
100
AcDbSymbolTableRecord
100
AcDbLayerTableRecord
  2
OTOCAD_AKALiN
 70
     0
 62
     3
  6
Continuous
370
     0
390
F
347
3E
  0
LAYER
  5
44
330
2
100
AcDbSymbolTableRecord
100
AcDbLayerTableRecord
  2
OTOCAD_OZKAN
 70
     0
 62
     6
  6
Continuous
370
     0
390
F
347
3E
  0
LAYER
  5
45
330
2
100
AcDbSymbolTableRecord
100
AcDbLayerTableRecord
  2
OTOCAD_145
 70
     0
 62
     5
  6
Continuous
370
     0
390
F
347
3E
  0
LAYER
  5
46
330
2
100
AcDbSymbolTableRecord
100
AcDbLayerTableRecord
  2
@TR
 70
     0
 62
   150
  6
Continuous
370
     0
390
F
347
3E
  0
LAYER
  5
47
330
2
100
AcDbSymbolTableRecord
100
AcDbLayerTableRecord
  2
@SM
 70
     0
 62
   150
  6
Continuous
370
     0
390
F
347
3E
  0
LAYER
  5
48
330
2
100
AcDbSymbolTableRecord
100
AcDbLayerTableRecord
  2
@LJ
 70
     0
 62
   150
  6
Continuous
370
     0
390
F
347
3E
  0
LAYER
  5
49
330
2
100
AcDbSymbolTableRecord
100
AcDbLayerTableRecord
  2
ADAKENARI
 70
     0
 62
     2
  6
Continuous
370
     0
390
F
347
3E
  0
LAYER
  5
4A
330
2
100
AcDbSymbolTableRecord
100
AcDbLayerTableRecord
  2
YAYAYOLU
 70
     0
 62
     3
  6
Continuous
370
     0
390
F
347
3E
  0
LAYER
  5
4B
330
2
100
AcDbSymbolTableRecord
100
AcDbLayerTableRecord
  2
YAYAYOLD
 70
     0
 62
     1
  6
Continuous
370
     0
390
F
347
3E
  0
LAYER
  5
4C
330
2
100
AcDbSymbolTableRecord
100
AcDbLayerTableRecord
  2
KALDIRIM
 70
     0
 62
    11
  6
Continuous
370
     0
390
F
347
3E
  0
LAYER
  5
4D
330
2
100
AcDbSymbolTableRecord
100
AcDbLayerTableRecord
  2
REFUJ
 70
     0
 62
     3
  6
Continuous
370
     0
390
F
347
3E
  0
LAYER
  5
122
330
2
100
AcDbSymbolTableRecord
100
AcDbLayerTableRecord
  2
INIT_COORD
 70
     0
 62
     5
  6
Continuous
370
     0
390
F
347
3E
1001
AcAecLayerStandard
1000

1000

  0
LAYER
  5
132
330
2
100
AcDbSymbolTableRecord
100
AcDbLayerTableRecord
  2
GEOFENCE
 70
     0
 62
     3
  6
Continuous
370
     0
390
F
347
3E
1001
AcAecLayerStandard
1000

1000

  0
LAYER
  5
136
330
2
100
AcDbSymbolTableRecord
100
AcDbLayerTableRecord
  2
GEOFENCE_REFERENCES
 70
     0
 62
     7
  6
Continuous
370
     0
390
F
347
3E
1001
AcAecLayerStandard
1000

1000

  0
ENDTAB
  0
TABLE
  2
STYLE
  5
3
330
0
100
AcDbSymbolTable
 70
     1
  0
STYLE
  5
11
330
3
100
AcDbSymbolTableRecord
100
AcDbTextStyleTableRecord
  2
Standard
 70
     0
 40
0.0
 41
1.0
 50
0.0
 71
     0
 42
2.5
  3
C:\Windows\Font\TIMES.TTF
  4

  0
ENDTAB
  0
TABLE
  2
VIEW
  5
6
330
0
100
AcDbSymbolTable
 70
     0
  0
ENDTAB
  0
TABLE
  2
UCS
  5
7
330
0
100
AcDbSymbolTable
 70
     0
  0
ENDTAB
  0
TABLE
  2
APPID
  5
9
330
0
100
AcDbSymbolTable
 70
     2
  0
APPID
  5
12
330
9
100
AcDbSymbolTableRecord
100
AcDbRegAppTableRecord
  2
ACAD
 70
     0
  0
APPID
  5
123
330
9
100
AcDbSymbolTableRecord
100
AcDbRegAppTableRecord
  2
AcAecLayerStandard
 70
     0
  0
ENDTAB
  0
TABLE
  2
DIMSTYLE
  5
A
330
0
100
AcDbSymbolTable
 70
     1
100
AcDbDimStyleTable
  0
DIMSTYLE
105
27
330
A
100
AcDbSymbolTableRecord
100
AcDbDimStyleTableRecord
  2
ISO-25
 70
     0
 41
2.5
 42
0.625
 43
3.75
 44
1.25
 73
     0
 74
     0
 77
     1
 78
     8
140
2.5
141
2.5
143
0.03937007874016
147
0.625
171
     3
172
     1
178
     0
271
     2
272
     2
274
     3
278
    44
283
     0
284
     8
340
11
  0
ENDTAB
  0
TABLE
  2
BLOCK_RECORD
  5
1
330
0
100
AcDbSymbolTable
 70
     1
  0
BLOCK_RECORD
  5
1F
330
1
100
AcDbSymbolTableRecord
100
AcDbBlockTableRecord
  2
*Model_Space
340
22
 70
     0
280
     1
281
     0
  0
BLOCK_RECORD
  5
1B
330
1
100
AcDbSymbolTableRecord
100
AcDbBlockTableRecord
  2
*Paper_Space
340
1E
 70
     0
280
     1
281
     0
  0
BLOCK_RECORD
  5
23
330
1
100
AcDbSymbolTableRecord
100
AcDbBlockTableRecord
  2
*Paper_Space0
340
26
 70
     0
280
     1
281
     0
  0
ENDTAB
  0
ENDSEC
  0
SECTION
  2
BLOCKS
  0
BLOCK
  5
20
330
1F
100
AcDbEntity
  8
0
100
AcDbBlockBegin
  2
*Model_Space
 70
     0
 10
0.0
 20
0.0
 30
0.0
  3
*Model_Space
  1

  0
ENDBLK
  5
21
330
1F
100
AcDbEntity
  8
0
100
AcDbBlockEnd
  0
BLOCK
  5
1C
330
1B
100
AcDbEntity
 67
     1
  8
0
100
AcDbBlockBegin
  2
*Paper_Space
 70
     0
 10
0.0
 20
0.0
 30
0.0
  3
*Paper_Space
  1

  0
ENDBLK
  5
1D
330
1B
100
AcDbEntity
 67
     1
  8
0
100
AcDbBlockEnd
  0
BLOCK
  5
24
330
23
100
AcDbEntity
  8
0
100
AcDbBlockBegin
  2
*Paper_Space0
 70
     0
 10
0.0
 20
0.0
 30
0.0
  3
*Paper_Space0
  1

  0
ENDBLK
  5
25
330
23
100
AcDbEntity
  8
0
100
AcDbBlockEnd
  0
ENDSEC
  0
SECTION
  2
ENTITIES
  0
POINT
  5
4F
330
1F
100
AcDbEntity
  8
OTOCAD_NOKTA
370
     0
100
AcDbPoint
 10
408658.0269129603
 20
4590229.179100096
 30
181.0
  0
POINT
  5
50
330
1F
100
AcDbEntity
  8
OTOCAD_NOKTA
370
     0
100
AcDbPoint
 10
408660.9483751653
 20
4590231.941209817
 30
181.0
  0
POINT
  5
51
330
1F
100
AcDbEntity
  8
OTOCAD_NOKTA
370
     0
100
AcDbPoint
 10
408740.0850009935
 20
4590149.172574712
 30
181.0
  0
POINT
  5
52
330
1F
100
AcDbEntity
  8
OTOCAD_NOKTA
370
     0
100
AcDbPoint
 10
408752.6992447957
 20
4590142.421693594
 30
181.0
  0
POINT
  5
53
330
1F
100
AcDbEntity
  8
OTOCAD_NOKTA
370
     0
100
AcDbPoint
 10
408766.1946276071
 20
4590135.238667259
 30
181.0
  0
POINT
  5
54
330
1F
100
AcDbEntity
  8
OTOCAD_NOKTA
370
     0
100
AcDbPoint
 10
408973.9236988427
 20
4590129.368586241
 30
181.0
  0
POINT
  5
55
330
1F
100
AcDbEntity
  8
OTOCAD_NOKTA
370
     0
100
AcDbPoint
 10
408977.0759508449
 20
4590127.680666192
 30
181.0
  0
POINT
  5
56
330
1F
100
AcDbEntity
  8
OTOCAD_NOKTA
370
     0
100
AcDbPoint
 10
408979.486473954
 20
4590124.769371107
 30
181.0
  0
POINT
  5
57
330
1F
100
AcDbEntity
  8
OTOCAD_NOKTA
370
     0
100
AcDbPoint
 10
408980.71025852
 20
4590120.868162782
 30
181.0
  0
POINT
  5
58
330
1F
100
AcDbEntity
  8
OTOCAD_NOKTA
370
     0
100
AcDbPoint
 10
408984.7100497025
 20
4590120.586481838
 30
181.0
  0
POINT
  5
59
330
1F
100
AcDbEntity
  8
OTOCAD_NOKTA
370
     0
100
AcDbPoint
 10
408983.6384774765
 20
4590126.387719357
 30
181.0
  0
POINT
  5
5A
330
1F
100
AcDbEntity
  8
OTOCAD_NOKTA
370
     0
100
AcDbPoint
 10
408982.560135183
 20
4590129.20078621
 30
181.0
  0
POINT
  5
5B
330
1F
100
AcDbEntity
  8
OTOCAD_NOKTA
370
     0
100
AcDbPoint
 10
408986.0744375258
 20
4590129.111880494
 30
181.0
  0
POINT
  5
5C
330
1F
100
AcDbEntity
  8
OTOCAD_NOKTA
370
     0
100
AcDbPoint
 10
408985.444107121
 20
4590133.126089915
 30
181.0
  0
POINT
  5
5D
330
1F
100
AcDbEntity
  8
OTOCAD_NOKTA
370
     0
100
AcDbPoint
 10
408767.2265613226
 20
4590139.220723104
 30
181.0
  0
POINT
  5
5E
330
1F
100
AcDbEntity
  8
OTOCAD_NOKTA
370
     0
100
AcDbPoint
 10
408742.5513636451
 20
4590152.354296061
 30
181.0
  0
POINT
  5
5F
330
1F
100
AcDbEntity
  8
OTOCAD_NOKTA
370
     0
100
AcDbPoint
 10
408980.6751641743
 20
4590073.77871388
 30
181.0
  0
POINT
  5
60
330
1F
100
AcDbEntity
  8
OTOCAD_NOKTA
370
     0
100
AcDbPoint
 10
408984.6751181496
 20
4590073.715467606
 30
181.0
  0
POINT
  5
61
330
1F
100
AcDbEntity
  8
OTOCAD_NOKTA
370
     0
100
AcDbPoint
 10
408978.5742408945
 20
4590009.509935905
 30
145.0
  0
POINT
  5
62
330
1F
100
AcDbEntity
  8
OTOCAD_NOKTA
370
     0
100
AcDbPoint
 10
408982.5796570556
 20
4590009.608679867
 30
145.0
  0
POINT
  5
63
330
1F
100
AcDbEntity
  8
OTOCAD_NOKTA
370
     0
100
AcDbPoint
 10
408980.5170304142
 20
4589861.595484175
 30
145.0
  0
POINT
  5
64
330
1F
100
AcDbEntity
  8
OTOCAD_NOKTA
370
     0
100
AcDbPoint
 10
408980.5140216935
 20
4589857.55839512
 30
145.0
  0
POINT
  5
65
330
1F
100
AcDbEntity
  8
OTOCAD_NOKTA
370
     0
100
AcDbPoint
 10
408980.5104556655
 20
4589852.773513374
 30
145.0
  0
LINE
  5
66
330
1F
100
AcDbEntity
  8
OTOCAD_NOKTA
370
     0
100
AcDbLine
 10
408984.5103422006
 20
4589852.619776134
 30
145.0
 11
408985.1984373096
 21
4589852.608677827
 31
145.0
  0
LINE
  5
67
330
1F
100
AcDbEntity
  8
OTOCAD_NOKTA
370
     0
100
AcDbLine
 10
408984.231258726
 20
4589852.624277481
 30
145.0
 11
408984.5103422006
 21
4589852.619776134
 31
145.0
  0
POINT
  5
68
330
1F
100
AcDbEntity
  8
OTOCAD_NOKTA
370
     0
100
AcDbPoint
 10
408984.5103422006
 20
4589852.619776134
 30
145.0
  0
POINT
  5
69
330
1F
100
AcDbEntity
  8
OTOCAD_NOKTA
370
     0
100
AcDbPoint
 10
408967.6733381763
 20
4589863.358343894
 30
145.0
  0
POINT
  5
6A
330
1F
100
AcDbEntity
  8
OTOCAD_NOKTA
370
     0
100
AcDbPoint
 10
408966.9626996726
 20
4589859.418380496
 30
145.0
  0
POINT
  5
6B
330
1F
100
AcDbEntity
  8
OTOCAD_NOKTA
370
     0
100
AcDbPoint
 10
408952.5911342386
 20
4589866.73883788
 30
145.0
  0
POINT
  5
6C
330
1F
100
AcDbEntity
  8
OTOCAD_NOKTA
370
     0
100
AcDbPoint
 10
408951.468599888
 20
4589862.891195965
 30
145.0
  0
POINT
  5
6D
330
1F
100
AcDbEntity
  8
OTOCAD_NOKTA
370
     0
100
AcDbPoint
 10
408932.1884627642
 20
4589874.122661842
 30
145.0
  0
POINT
  5
6E
330
1F
100
AcDbEntity
  8
OTOCAD_NOKTA
370
     0
100
AcDbPoint
 10
408928.2789493792
 20
4589875.537533353
 30
145.0
  0
POINT
  5
6F
330
1F
100
AcDbEntity
  8
OTOCAD_NOKTA
370
     0
100
AcDbPoint
 10
408924.606276813
 20
4589876.866691044
 30
145.0
  0
POINT
  5
70
330
1F
100
AcDbEntity
  8
OTOCAD_NOKTA
370
     0
100
AcDbPoint
 10
408919.1061053047
 20
4589876.316673893
 30
145.0
  0
POINT
  5
71
330
1F
100
AcDbEntity
  8
OTOCAD_NOKTA
370
     0
100
AcDbPoint
 10
408913.1276291125
 20
4589877.063983417
 30
145.0
  0
POINT
  5
72
330
1F
100
AcDbEntity
  8
OTOCAD_NOKTA
370
     0
100
AcDbPoint
 10
408897.6131241222
 20
4589881.018661159
 30
145.0
  0
POINT
  5
73
330
1F
100
AcDbEntity
  8
OTOCAD_NOKTA
370
     0
100
AcDbPoint
 10
408924.0998040231
 20
4589872.796093516
 30
145.0
  0
POINT
  5
74
330
1F
100
AcDbEntity
  8
OTOCAD_NOKTA
370
     0
100
AcDbPoint
 10
408919.0564225237
 20
4589872.291755366
 30
145.0
  0
POINT
  5
75
330
1F
100
AcDbEntity
  8
OTOCAD_NOKTA
370
     0
100
AcDbPoint
 10
408911.534508109
 20
4589873.231994668
 30
145.0
  0
POINT
  5
76
330
1F
100
AcDbEntity
  8
OTOCAD_NOKTA
370
     0
100
AcDbPoint
 10
408907.6510513732
 20
4589874.332068765
 30
145.0
  0
POINT
  5
77
330
1F
100
AcDbEntity
  8
OTOCAD_NOKTA
370
     0
100
AcDbPoint
 10
408901.0110799273
 20
4589876.024610505
 30
145.0
  0
POINT
  5
78
330
1F
100
AcDbEntity
  8
OTOCAD_NOKTA
370
     0
100
AcDbPoint
 10
408803.2614841238
 20
4589856.26885676
 30
219.0
  0
POINT
  5
79
330
1F
100
AcDbEntity
  8
OTOCAD_NOKTA
370
     0
100
AcDbPoint
 10
408802.9428775349
 20
4589852.274071069
 30
219.0
  0
POINT
  5
7A
330
1F
100
AcDbEntity
  8
OTOCAD_NOKTA
370
     0
100
AcDbPoint
 10
408773.4817786191
 20
4589860.48545223
 30
219.0
  0
POINT
  5
7B
330
1F
100
AcDbEntity
  8
OTOCAD_NOKTA
370
     0
100
AcDbPoint
 10
408773.151508546
 20
4589856.492318006
 30
219.0
  0
POINT
  5
7C
330
1F
100
AcDbEntity
  8
OTOCAD_NOKTA
370
     0
100
AcDbPoint
 10
408751.6571920389
 20
4589861.040458057
 30
219.0
  0
POINT
  5
7D
330
1F
100
AcDbEntity
  8
OTOCAD_NOKTA
370
     0
100
AcDbPoint
 10
408751.6571920389
 20
4589857.021820132
 30
219.0
  0
POINT
  5
80
330
1F
100
AcDbEntity
  8
OTOCAD_NOKTA
370
     0
100
AcDbPoint
 10
409007.1205244728
 20
4589984.606101282
 30
134.0
  0
POINT
  5
81
330
1F
100
AcDbEntity
  8
OTOCAD_NOKTA
370
     0
100
AcDbPoint
 10
409004.1398534689
 20
4589985.066436572
 30
134.0
  0
POINT
  5
82
330
1F
100
AcDbEntity
  8
OTOCAD_NOKTA
370
     0
100
AcDbPoint
 10
408992.0451394927
 20
4589986.963387122
 30
134.0
  0
POINT
  5
83
330
1F
100
AcDbEntity
  8
OTOCAD_NOKTA
370
     0
100
AcDbPoint
 10
408989.0490696297
 20
4589987.120063357
 30
134.0
  0
POINT
  5
84
330
1F
100
AcDbEntity
  8
OTOCAD_NOKTA
370
     0
100
AcDbPoint
 10
408991.0415017699
 20
4589984.053781223
 30
134.0
  0
POINT
  5
85
330
1F
100
AcDbEntity
  8
OTOCAD_NOKTA
370
     0
100
AcDbPoint
 10
408989.669394902
 20
4589980.676287394
 30
145.0
  0
POINT
  5
86
330
1F
100
AcDbEntity
  8
OTOCAD_NOKTA
370
     0
100
AcDbPoint
 10
408987.6013542167
 20
4589983.556456187
 30
145.0
  0
POINT
  5
87
330
1F
100
AcDbEntity
  8
OTOCAD_NOKTA
370
     0
100
AcDbPoint
 10
408984.744059047
 20
4589983.383286783
 30
145.0
  0
POINT
  5
88
330
1F
100
AcDbEntity
  8
OTOCAD_NOKTA
370
     0
100
AcDbPoint
 10
408984.6055501322
 20
4589980.36938771
 30
145.0
  0
LINE
  5
89
330
1F
100
AcDbEntity
  8
OTOCAD_LAGiMi
370
     0
100
AcDbLine
 10
408658.0269129603
 20
4590229.179100096
 30
181.0
 11
408740.0850009935
 21
4590149.172574712
 31
181.0
  0
LINE
  5
8A
330
1F
100
AcDbEntity
  8
OTOCAD_LAGiMi
370
     0
100
AcDbLine
 10
408740.0850009935
 20
4590149.172574712
 30
181.0
 11
408752.6992447957
 21
4590142.421693594
 31
181.0
  0
LINE
  5
8B
330
1F
100
AcDbEntity
  8
OTOCAD_LAGiMi
370
     0
100
AcDbLine
 10
408752.6992447957
 20
4590142.421693594
 30
181.0
 11
408766.1946276071
 21
4590135.238667259
 31
181.0
  0
LINE
  5
8C
330
1F
100
AcDbEntity
  8
OTOCAD_LAGiMi
370
     0
100
AcDbLine
 10
408766.1946276071
 20
4590135.238667259
 30
181.0
 11
408973.9236988427
 21
4590129.368586241
 31
181.0
  0
LINE
  5
8D
330
1F
100
AcDbEntity
  8
OTOCAD_LAGiMi
370
     0
100
AcDbLine
 10
408973.9236988427
 20
4590129.368586241
 30
181.0
 11
408977.0759508449
 21
4590127.680666192
 31
181.0
  0
LINE
  5
8E
330
1F
100
AcDbEntity
  8
OTOCAD_LAGiMi
370
     0
100
AcDbLine
 10
408977.0759508449
 20
4590127.680666192
 30
181.0
 11
408979.486473954
 21
4590124.769371107
 31
181.0
  0
LINE
  5
8F
330
1F
100
AcDbEntity
  8
OTOCAD_LAGiMi
370
     0
100
AcDbLine
 10
408979.486473954
 20
4590124.769371107
 30
181.0
 11
408980.71025852
 21
4590120.868162782
 31
181.0
  0
LINE
  5
90
330
1F
100
AcDbEntity
  8
OTOCAD_LAGiMi
370
     0
100
AcDbLine
 10
408980.71025852
 20
4590120.868162782
 30
181.0
 11
408980.6751641743
 21
4590073.77871388
 31
181.0
  0
LINE
  5
91
330
1F
100
AcDbEntity
  8
OTOCAD_LAGiMi
370
     0
100
AcDbLine
 10
408984.6751181496
 20
4590073.715467606
 30
181.0
 11
408984.7100497025
 21
4590120.586481838
 31
181.0
  0
LINE
  5
92
330
1F
100
AcDbEntity
  8
OTOCAD_LAGiMi
370
     0
100
AcDbLine
 10
408984.7100497025
 20
4590120.586481838
 30
181.0
 11
408983.6384774765
 21
4590126.387719357
 31
181.0
  0
LINE
  5
93
330
1F
100
AcDbEntity
  8
OTOCAD_LAGiMi
370
     0
100
AcDbLine
 10
408983.6384774765
 20
4590126.387719357
 30
181.0
 11
408982.560135183
 21
4590129.20078621
 31
181.0
  0
LINE
  5
94
330
1F
100
AcDbEntity
  8
OTOCAD_LAGiMi
370
     0
100
AcDbLine
 10
408982.560135183
 20
4590129.20078621
 30
181.0
 11
408986.0744375258
 21
4590129.111880494
 31
181.0
  0
LINE
  5
95
330
1F
100
AcDbEntity
  8
OTOCAD_LAGiMi
370
     0
100
AcDbLine
 10
408985.444107121
 20
4590133.126089915
 30
181.0
 11
408767.2265613226
 21
4590139.220723104
 31
181.0
  0
LINE
  5
96
330
1F
100
AcDbEntity
  8
OTOCAD_LAGiMi
370
     0
100
AcDbLine
 10
408767.2265613226
 20
4590139.220723104
 30
181.0
 11
408742.5513636451
 21
4590152.354296061
 31
181.0
  0
LINE
  5
97
330
1F
100
AcDbEntity
  8
OTOCAD_LAGiMi
370
     0
100
AcDbLine
 10
408742.5513636451
 20
4590152.354296061
 30
181.0
 11
408660.9483751653
 21
4590231.941209817
 31
181.0
  0
LINE
  5
98
330
1F
100
AcDbEntity
  8
OTOCAD_LAGiMi
370
     0
100
AcDbLine
 10
408980.5104556655
 20
4589852.773513374
 30
145.0
 11
408980.5140216935
 21
4589857.55839512
 31
145.0
  0
POINT
  5
99
330
1F
100
AcDbEntity
  8
OTOCAD_NOKTA
370
     0
100
AcDbPoint
 10
408980.6058883307
 20
4589980.82467148
 30
145.0
  0
LINE
  5
9A
330
1F
100
AcDbEntity
  8
OTOCAD_DESENDRE
370
     0
100
AcDbLine
 10
408980.6751641743
 20
4590073.77871388
 30
181.0
 11
408978.5742408945
 21
4590009.509935905
 31
145.0
  0
LINE
  5
9B
330
1F
100
AcDbEntity
  8
OTOCAD_DESENDRE
370
     0
100
AcDbLine
 10
408982.5796570556
 20
4590009.608679867
 30
145.0
 11
408984.6751181496
 21
4590073.715467606
 31
181.0
  0
LINE
  5
9C
330
1F
100
AcDbEntity
  8
OTOCAD_AKALiN
370
     0
100
AcDbLine
 10
408897.6131241222
 20
4589881.018661159
 30
145.0
 11
408913.1276291125
 21
4589877.063983417
 31
145.0
  0
LINE
  5
9D
330
1F
100
AcDbEntity
  8
OTOCAD_AKALiN
370
     0
100
AcDbLine
 10
408913.1276291125
 20
4589877.063983417
 30
145.0
 11
408919.1061053047
 21
4589876.316673893
 31
145.0
  0
LINE
  5
9E
330
1F
100
AcDbEntity
  8
OTOCAD_AKALiN
370
     0
100
AcDbLine
 10
408919.1061053047
 20
4589876.316673893
 30
145.0
 11
408924.606276813
 21
4589876.866691044
 31
145.0
  0
LINE
  5
9F
330
1F
100
AcDbEntity
  8
OTOCAD_AKALiN
370
     0
100
AcDbLine
 10
408924.606276813
 20
4589876.866691044
 30
145.0
 11
408928.2789493792
 21
4589875.537533353
 31
145.0
  0
LINE
  5
A0
330
1F
100
AcDbEntity
  8
OTOCAD_AKALiN
370
     0
100
AcDbLine
 10
408932.1884627642
 20
4589874.122661842
 30
145.0
 11
408952.5911342386
 21
4589866.73883788
 31
145.0
  0
LINE
  5
A1
330
1F
100
AcDbEntity
  8
OTOCAD_AKALiN
370
     0
100
AcDbLine
 10
408952.5911342386
 20
4589866.73883788
 30
145.0
 11
408967.6733381763
 21
4589863.358343894
 31
145.0
  0
LINE
  5
A2
330
1F
100
AcDbEntity
  8
OTOCAD_AKALiN
370
     0
100
AcDbLine
 10
408967.6733381763
 20
4589863.358343894
 30
145.0
 11
408980.5170304142
 21
4589861.595484175
 31
145.0
  0
LINE
  5
A3
330
1F
100
AcDbEntity
  8
OTOCAD_AKALiN
370
     0
100
AcDbLine
 10
408980.5140216935
 20
4589857.55839512
 30
145.0
 11
408966.9626996726
 21
4589859.418380496
 31
145.0
  0
LINE
  5
A4
330
1F
100
AcDbEntity
  8
OTOCAD_AKALiN
370
     0
100
AcDbLine
 10
408966.9626996726
 20
4589859.418380496
 30
145.0
 11
408951.468599888
 21
4589862.891195965
 31
145.0
  0
LINE
  5
A5
330
1F
100
AcDbEntity
  8
OTOCAD_AKALiN
370
     0
100
AcDbLine
 10
408951.468599888
 20
4589862.891195965
 30
145.0
 11
408924.0998040231
 21
4589872.796093516
 31
145.0
  0
LINE
  5
A6
330
1F
100
AcDbEntity
  8
OTOCAD_AKALiN
370
     0
100
AcDbLine
 10
408924.0998040231
 20
4589872.796093516
 30
145.0
 11
408919.0564225237
 21
4589872.291755366
 31
145.0
  0
LINE
  5
A7
330
1F
100
AcDbEntity
  8
OTOCAD_AKALiN
370
     0
100
AcDbLine
 10
408919.0564225237
 20
4589872.291755366
 30
145.0
 11
408911.534508109
 21
4589873.231994668
 31
145.0
  0
LINE
  5
A8
330
1F
100
AcDbEntity
  8
OTOCAD_AKALiN
370
     0
100
AcDbLine
 10
408911.534508109
 20
4589873.231994668
 30
145.0
 11
408907.6510513732
 21
4589874.332068765
 31
145.0
  0
LINE
  5
A9
330
1F
100
AcDbEntity
  8
OTOCAD_AKALiN
370
     0
100
AcDbLine
 10
408907.6510513732
 20
4589874.332068765
 30
145.0
 11
408901.0110799273
 21
4589876.024610505
 31
145.0
  0
LINE
  5
AA
330
1F
100
AcDbEntity
  8
OTOCAD_AKALiN
370
     0
100
AcDbLine
 10
408803.2614841238
 20
4589856.26885676
 30
219.0
 11
408773.4817786191
 21
4589860.48545223
 31
219.0
  0
LINE
  5
AB
330
1F
100
AcDbEntity
  8
OTOCAD_AKALiN
370
     0
100
AcDbLine
 10
408773.4817786191
 20
4589860.48545223
 30
219.0
 11
408751.6571920389
 21
4589861.040458057
 31
219.0
  0
LINE
  5
AC
330
1F
100
AcDbEntity
  8
OTOCAD_AKALiN
370
     0
100
AcDbLine
 10
408751.6571920389
 20
4589857.021820132
 30
219.0
 11
408773.151508546
 21
4589856.492318006
 31
219.0
  0
LINE
  5
AD
330
1F
100
AcDbEntity
  8
OTOCAD_AKALiN
370
     0
100
AcDbLine
 10
408773.151508546
 20
4589856.492318006
 30
219.0
 11
408802.9428775349
 21
4589852.274071069
 31
219.0
  0
LINE
  5
AE
330
1F
100
AcDbEntity
  8
OTOCAD_OZKAN
370
     0
100
AcDbLine
 10
408998.2772863591
 20
4589985.985929164
 30
134.0
 11
408992.0451394927
 21
4589986.963387122
 31
134.0
  0
LINE
  5
AF
330
1F
100
AcDbEntity
  8
OTOCAD_OZKAN
370
     0
100
AcDbLine
 10
408991.0415017699
 20
4589984.053781223
 30
134.0
 11
408989.669394902
 21
4589980.676287394
 31
145.0
  0
LINE
  5
B0
330
1F
100
AcDbEntity
  8
OTOCAD_OZKAN
370
     0
100
AcDbLine
 10
408989.669394902
 20
4589980.676287394
 30
145.0
 11
408984.6055501322
 21
4589980.36938771
 31
145.0
  0
LINE
  5
B1
330
1F
100
AcDbEntity
  8
OTOCAD_OZKAN
370
     0
100
AcDbLine
 10
408984.744059047
 20
4589983.383286783
 30
145.0
 11
408987.6013542167
 21
4589983.556456187
 31
145.0
  0
LINE
  5
B2
330
1F
100
AcDbEntity
  8
OTOCAD_OZKAN
370
     0
100
AcDbLine
 10
408987.6013542167
 20
4589983.556456187
 30
145.0
 11
408989.0490696297
 21
4589987.120063357
 31
134.0
  0
LINE
  5
B3
330
1F
100
AcDbEntity
  8
OTOCAD_145
370
     0
100
AcDbLine
 10
408982.5796570556
 20
4590009.608679867
 30
145.0
 11
408984.744059047
 21
4589983.383286783
 31
145.0
  0
LINE
  5
B4
330
1F
100
AcDbEntity
  8
OTOCAD_145
370
     0
100
AcDbLine
 10
408978.5742408945
 20
4590009.509935905
 30
145.0
 11
408980.6058883307
 21
4589980.82467148
 31
145.0
  0
LINE
  5
B5
330
1F
100
AcDbEntity
  8
OTOCAD_145
370
     0
100
AcDbLine
 10
408980.6058883307
 20
4589980.82467148
 30
145.0
 11
408980.5170304142
 21
4589861.595484175
 31
145.0
  0
LINE
  5
B6
330
1F
100
AcDbEntity
  8
OTOCAD_145
370
     0
100
AcDbLine
 10
408980.5140216935
 20
4589857.55839512
 30
145.0
 11
408980.5104556655
 21
4589852.773513374
 31
145.0
  0
LINE
  5
B7
330
1F
100
AcDbEntity
  8
OTOCAD_145
370
     0
100
AcDbLine
 10
408984.5103422006
 20
4589852.619776134
 30
145.0
 11
408984.6055501322
 21
4589980.36938771
 31
145.0
  0
LINE
  5
B8
330
1F
100
AcDbEntity
  8
OTOCAD_145
370
     0
100
AcDbLine
 10
408984.744059047
 20
4589983.383286783
 30
145.0
 11
408982.5796570556
 21
4590009.608679867
 31
145.0
  0
POINT
  5
B9
330
1F
100
AcDbEntity
  8
0
370
     0
100
AcDbPoint
 10
408895.3034522279
 20
4589862.706098223
 30
182.0
  0
POINT
  5
BA
330
1F
100
AcDbEntity
  8
0
370
     0
100
AcDbPoint
 10
408898.6877429476
 20
4589859.184120451
 30
182.0
  0
POINT
  5
BB
330
1F
100
AcDbEntity
  8
0
370
     0
100
AcDbPoint
 10
408817.5884215925
 20
4589855.115327789
 30
219.0
  0
POINT
  5
BC
330
1F
100
AcDbEntity
  8
0
370
     0
100
AcDbPoint
 10
408817.7691542219
 20
4589850.777744683
 30
219.0
  0
LINE
  5
BD
330
1F
100
AcDbEntity
  8
OTOCAD_AKALiN
370
     0
100
AcDbLine
 10
408803.2614841238
 20
4589856.26885676
 30
219.0
 11
408817.5884215925
 21
4589855.115327789
 31
219.0
  0
LINE
  5
BE
330
1F
100
AcDbEntity
  8
OTOCAD_AKALiN
370
     0
100
AcDbLine
 10
408817.5884215925
 20
4589855.115327789
 30
219.0
 11
408895.3034522279
 21
4589862.706098223
 31
182.0
  0
LINE
  5
BF
330
1F
100
AcDbEntity
  8
OTOCAD_AKALiN
370
     0
100
AcDbLine
 10
408895.3034522279
 20
4589862.706098223
 30
182.0
 11
408897.6131241222
 21
4589881.018661159
 31
145.0
  0
LINE
  5
C0
330
1F
100
AcDbEntity
  8
OTOCAD_AKALiN
370
     0
100
AcDbLine
 10
408817.7691542219
 20
4589850.777744683
 30
219.0
 11
408802.9428775349
 21
4589852.274071069
 31
219.0
  0
LINE
  5
C1
330
1F
100
AcDbEntity
  8
OTOCAD_AKALiN
370
     0
100
AcDbLine
 10
408817.7691542219
 20
4589850.777744683
 30
219.0
 11
408898.6877429476
 21
4589859.184120451
 31
182.0
  0
LINE
  5
C2
330
1F
100
AcDbEntity
  8
OTOCAD_AKALiN
370
     0
100
AcDbLine
 10
408901.0110799273
 20
4589876.024610505
 30
145.0
 11
408898.6877429476
 21
4589859.184120451
 31
182.0
  0
LINE
  5
C3
330
1F
100
AcDbEntity
  8
OTOCAD_OZKAN
370
     0
100
AcDbLine
 10
408989.0490696297
 20
4589987.120063357
 30
134.0
 11
408992.0451394927
 21
4589986.963387122
 31
134.0
  0
LINE
  5
C4
330
1F
100
AcDbEntity
  8
OTOCAD_OZKAN
370
     0
100
AcDbLine
 10
409004.1398534689
 20
4589985.066436572
 30
134.0
 11
409001.2728454463
 21
4589985.516101811
 31
134.0
  0
LINE
  5
C5
330
1F
100
AcDbEntity
  8
OTOCAD_OZKAN
370
     0
100
AcDbLine
 10
409009.2656473859
 20
4589984.274808168
 30
134.0
 11
409007.1205244728
 21
4589984.606101282
 31
134.0
  0
LINE
  5
C6
330
1F
100
AcDbEntity
  8
OTOCAD_OZKAN
370
     0
100
AcDbLine
 10
409004.1398534689
 20
4589985.066436572
 30
134.0
 11
409007.1205244728
 21
4589984.606101282
 31
134.0
  0
POINT
  5
C7
330
1F
100
AcDbEntity
  8
OTOCAD_OZKAN
370
     0
100
AcDbPoint
 10
408998.2772863591
 20
4589985.985929164
 30
134.0
  0
POINT
  5
C8
330
1F
100
AcDbEntity
  8
OTOCAD_OZKAN
370
     0
100
AcDbPoint
 10
409001.2728454463
 20
4589985.516101811
 30
134.0
  0
POINT
  5
C9
330
1F
100
AcDbEntity
  8
OTOCAD_OZKAN
370
     0
100
AcDbPoint
 10
409009.2656473859
 20
4589984.274808168
 30
134.0
  0
POINT
  5
CA
330
1F
100
AcDbEntity
  8
OTOCAD_OZKAN
370
     0
100
AcDbPoint
 10
409012.2478101567
 20
4589983.81424249
 30
134.0
  0
LINE
  5
CB
330
1F
100
AcDbEntity
  8
OTOCAD_OZKAN
370
     0
100
AcDbLine
 10
409012.1107917175
 20
4589980.799836829
 30
134.0
 11
408991.0415017699
 21
4589984.053781223
 31
134.0
  0
POINT
  5
CC
330
1F
100
AcDbEntity
  8
OTOCAD_OZKAN
370
     0
100
AcDbPoint
 10
409040.0659343144
 20
4589987.458068264
 30
128.0
  0
POINT
  5
CD
330
1F
100
AcDbEntity
  8
OTOCAD_OZKAN
370
     0
100
AcDbPoint
 10
409039.9855620731
 20
4589984.457504589
 30
128.0
  0
POINT
  5
CE
330
1F
100
AcDbEntity
  8
OTOCAD_OZKAN
370
     0
100
AcDbPoint
 10
409037.0696663293
 20
4589987.637568189
 30
128.0
  0
POINT
  5
CF
330
1F
100
AcDbEntity
  8
OTOCAD_OZKAN
370
     0
100
AcDbPoint
 10
409036.989294088
 20
4589984.637004515
 30
128.0
  0
LINE
  5
D0
330
1F
100
AcDbEntity
  8
OTOCAD_OZKAN
370
     0
100
AcDbLine
 10
409012.1107917175
 20
4589980.799836829
 30
134.0
 11
409012.3522970275
 21
4589986.112953647
 31
128.0
  0
LINE
  5
D1
330
1F
100
AcDbEntity
  8
OTOCAD_OZKAN
370
     0
100
AcDbLine
 10
409009.3573549301
 20
4589986.292374142
 30
128.0
 11
409009.4935920633
 21
4589989.289591071
 31
128.0
  0
LINE
  5
D2
330
1F
100
AcDbEntity
  8
OTOCAD_OZKAN
370
     0
100
AcDbLine
 10
409009.2656473859
 20
4589984.274808168
 30
134.0
 11
409009.3573549301
 21
4589986.292374142
 31
128.0
  0
POINT
  5
D3
330
1F
100
AcDbEntity
  8
OTOCAD_OZKAN
370
     0
100
AcDbPoint
 10
409009.4935920633
 20
4589989.289591071
 30
128.0
  0
POINT
  5
D4
330
1F
100
AcDbEntity
  8
OTOCAD_OZKAN
370
     0
100
AcDbPoint
 10
409012.4885341607
 20
4589989.110170577
 30
128.0
  0
POINT
  5
D5
330
1F
100
AcDbEntity
  8
OTOCAD_OZKAN
370
     0
100
AcDbPoint
 10
409009.3573549301
 20
4589986.292374142
 30
128.0
  0
POINT
  5
D6
330
1F
100
AcDbEntity
  8
OTOCAD_OZKAN
370
     0
100
AcDbPoint
 10
409012.3522970275
 20
4589986.112953647
 30
128.0
  0
POINT
  5
D7
330
1F
100
AcDbEntity
  8
OTOCAD_OZKAN
370
     0
100
AcDbPoint
 10
409012.1107917175
 20
4589980.799836829
 30
134.0
  0
POINT
  5
D8
330
1F
100
AcDbEntity
  8
OTOCAD_OZKAN
370
     0
100
AcDbPoint
 10
409043.8849919419
 20
4589984.223898192
 30
128.0
  0
POINT
  5
D9
330
1F
100
AcDbEntity
  8
OTOCAD_OZKAN
370
     0
100
AcDbPoint
 10
409041.1624323756
 20
4589993.650774371
 30
122.0
  0
POINT
  5
DA
330
1F
100
AcDbEntity
  8
OTOCAD_OZKAN
370
     0
100
AcDbPoint
 10
409044.1572026599
 20
4589993.429569747
 30
122.0
  0
POINT
  5
DB
330
1F
100
AcDbEntity
  8
OTOCAD_OZKAN
370
     0
100
AcDbPoint
 10
409061.7173492702
 20
4589992.132513463
 30
122.0
  0
POINT
  5
DC
330
1F
100
AcDbEntity
  8
OTOCAD_OZKAN
370
     0
100
AcDbPoint
 10
409064.5167405187
 20
4589988.917567624
 30
122.0
  0
POINT
  5
DD
330
1F
100
AcDbEntity
  8
OTOCAD_OZKAN
370
     0
100
AcDbPoint
 10
409044.0684451776
 20
4589990.427953075
 30
122.0
  0
LINE
  5
DE
330
1F
100
AcDbEntity
  8
OTOCAD_OZKAN
370
     0
100
AcDbLine
 10
409044.1572026599
 20
4589993.429569747
 30
122.0
 11
409061.7173492702
 21
4589992.132513463
 31
122.0
  0
LINE
  5
DF
330
1F
100
AcDbEntity
  8
OTOCAD_OZKAN
370
     0
100
AcDbLine
 10
409064.5167405187
 20
4589988.917567624
 30
122.0
 11
409044.0684451776
 21
4589990.427953075
 31
122.0
  0
LINE
  5
E0
330
1F
100
AcDbEntity
  8
OTOCAD_OZKAN
370
     0
100
AcDbLine
 10
409044.0684451776
 20
4589990.427953075
 30
122.0
 11
409043.8849919419
 21
4589984.223898192
 31
128.0
  0
LINE
  5
E1
330
1F
100
AcDbEntity
  8
OTOCAD_OZKAN
370
     0
100
AcDbLine
 10
409043.8849919419
 20
4589984.223898192
 30
128.0
 11
409039.9855620731
 21
4589984.457504589
 31
128.0
  0
LINE
  5
E2
330
1F
100
AcDbEntity
  8
OTOCAD_OZKAN
370
     0
100
AcDbLine
 10
409039.9855620731
 20
4589984.457504589
 30
128.0
 11
409036.989294088
 21
4589984.637004515
 31
128.0
  0
LINE
  5
E3
330
1F
100
AcDbEntity
  8
OTOCAD_OZKAN
370
     0
100
AcDbLine
 10
409036.989294088
 20
4589984.637004515
 30
128.0
 11
409012.3522970275
 21
4589986.112953647
 31
128.0
  0
LINE
  5
E4
330
1F
100
AcDbEntity
  8
OTOCAD_OZKAN
370
     0
100
AcDbLine
 10
409041.1624323756
 20
4589993.650774371
 30
122.0
 11
409040.0659343144
 21
4589987.458068264
 31
128.0
  0
LINE
  5
E5
330
1F
100
AcDbEntity
  8
OTOCAD_OZKAN
370
     0
100
AcDbLine
 10
409040.0659343144
 20
4589987.458068264
 30
128.0
 11
409037.0696663293
 21
4589987.637568189
 31
128.0
  0
LINE
  5
E6
330
1F
100
AcDbEntity
  8
OTOCAD_OZKAN
370
     0
100
AcDbLine
 10
409037.0696663293
 20
4589987.637568189
 30
128.0
 11
409012.4885341607
 21
4589989.110170577
 31
128.0
  0
LINE
  5
E7
330
1F
100
AcDbEntity
  8
OTOCAD_OZKAN
370
     0
100
AcDbLine
 10
408998.2772863591
 20
4589985.985929164
 30
134.0
 11
409001.2728454463
 21
4589985.516101811
 31
134.0
  0
LINE
  5
E8
330
1F
100
AcDbEntity
  8
OTOCAD_OZKAN
370
     0
100
AcDbLine
 10
409009.4935920633
 20
4589989.289591071
 30
128.0
 11
409012.4885341607
 21
4589989.110170577
 31
128.0
  0
LINE
  5
E9
330
1F
100
AcDbEntity
  8
OTOCAD_OZKAN
370
     0
100
AcDbLine
 10
409041.1624323756
 20
4589993.650774371
 30
122.0
 11
409044.1572026599
 21
4589993.429569747
 31
122.0
  0
LINE
  5
EA
330
1F
100
AcDbEntity
  8
OTOCAD_LAGiMi
370
     0
100
AcDbLine
 10
408985.444107121
 20
4590133.126089915
 30
181.0
 11
408986.0744375258
 21
4590129.111880494
 31
181.0
  0
LINE
  5
EB
330
1F
100
AcDbEntity
  8
OTOCAD_AKALiN
370
     0
100
AcDbLine
 10
408928.2789493792
 20
4589875.537533353
 30
145.0
 11
408932.1884627642
 21
4589874.122661842
 31
145.0
  0
POINT
  5
126
330
1F
100
AcDbEntity
  8
INIT_COORD
100
AcDbPoint
 10
408659.4876440628
 20
4590230.560154957
 30
181.0
  0
LINE
  5
156
330
1F
100
AcDbEntity
  8
GEOFENCE
100
AcDbLine
 10
408659.4876440628
 20
4590230.560154957
 30
181.0
 11
408695.2850391151
 21
4590195.65246945
 31
181.0
  0
LINE
  5
157
330
1F
100
AcDbEntity
  8
GEOFENCE
100
AcDbLine
 10
408695.2850391151
 20
4590195.65246945
 30
181.0
 11
408731.0824341673
 21
4590160.744783943
 31
181.0
  0
LINE
  5
15A
330
1F
100
AcDbEntity
  8
GEOFENCE
100
AcDbLine
 10
408731.0824341673
 20
4590160.744783943
 30
181.0
 11
408738.2419131777
 21
4590153.763246841
 31
181.0
  0
LINE
  5
160
330
1F
100
AcDbEntity
  8
GEOFENCE
100
AcDbLine
 10
408738.2419131777
 20
4590153.763246841
 30
181.0
 11
408741.3181823193
 21
4590150.763435386
 31
181.0
  0
LINE
  5
161
330
1F
100
AcDbEntity
  8
GEOFENCE
100
AcDbLine
 10
408741.3181823193
 20
4590150.763435386
 30
181.0
 11
408766.7105944649
 21
4590137.229695181
 31
181.0
  0
LINE
  5
162
330
1F
100
AcDbEntity
  8
GEOFENCE
100
AcDbLine
 10
408766.7105944649
 20
4590137.229695181
 30
181.0
 11
408816.6853056428
 21
4590135.639650315
 31
181.0
  0
LINE
  5
163
330
1F
100
AcDbEntity
  8
GEOFENCE
100
AcDbLine
 10
408816.6853056428
 20
4590135.639650315
 30
181.0
 11
408866.6600168208
 21
4590134.049605449
 31
181.0
  0
LINE
  5
164
330
1F
100
AcDbEntity
  8
GEOFENCE
100
AcDbLine
 10
408866.6600168208
 20
4590134.049605449
 30
181.0
 11
408916.6347279988
 21
4590132.459560583
 31
181.0
  0
LINE
  5
165
330
1F
100
AcDbEntity
  8
GEOFENCE
100
AcDbLine
 10
408916.6347279988
 20
4590132.459560583
 30
181.0
 11
408966.6094391768
 21
4590130.869515717
 31
181.0
  0
LINE
  5
166
330
1F
100
AcDbEntity
  8
GEOFENCE
100
AcDbLine
 10
408966.6094391768
 20
4590130.869515717
 30
181.0
 11
408976.6043814124
 21
4590130.551506744
 31
181.0
  0
LINE
  5
167
330
1F
100
AcDbEntity
  8
GEOFENCE
100
AcDbLine
 10
408976.6043814124
 20
4590130.551506744
 30
181.0
 11
408981.883003775
 21
4590122.058206681
 31
181.0
  0
LINE
  5
168
330
1F
100
AcDbEntity
  8
GEOFENCE
100
AcDbLine
 10
408981.883003775
 20
4590122.058206681
 30
181.0
 11
408982.7027229129
 21
4590072.064926527
 31
181.0
  0
LINE
  5
169
330
1F
100
AcDbEntity
  8
GEOFENCE
100
AcDbLine
 10
408982.7027229129
 20
4590072.064926527
 30
181.0
 11
408981.229821628
 21
4590028.75617936
 31
156.0564040171524
  0
LINE
  5
16A
330
1F
100
AcDbEntity
  8
GEOFENCE
100
AcDbLine
 10
408981.229821628
 20
4590028.75617936
 30
156.0564040171524
 11
408980.935241371
 21
4590020.094429926
 31
151.0676848206136
  0
LINE
  5
16B
330
1F
100
AcDbEntity
  8
GEOFENCE
100
AcDbLine
 10
408980.935241371
 20
4590020.094429926
 30
151.0676848206136
 11
408980.640661114
 21
4590011.432680492
 31
146.0789656240263
  0
LINE
  5
16C
330
1F
100
AcDbEntity
  8
GEOFENCE
100
AcDbLine
 10
408980.640661114
 20
4590011.432680492
 30
146.0789656240263
 11
408982.0236552408
 21
4589991.494042628
 31
145.3454484941632
  0
LINE
  5
16E
330
1F
100
AcDbEntity
  8
GEOFENCE
100
AcDbLine
 10
408982.0236552408
 20
4589991.494042628
 30
145.3454484941632
 11
408982.7151523043
 21
4589981.524723697
 31
144.9786899292316
  0
LINE
  5
170
330
1F
100
AcDbEntity
  8
GEOFENCE
100
AcDbLine
 10
408982.7151523043
 20
4589981.524723697
 30
144.9786899292316
 11
408988.6353745593
 21
4589982.11637179
 31
145.0
  0
LINE
  5
171
330
1F
100
AcDbEntity
  8
GEOFENCE
100
AcDbLine
 10
408988.6353745593
 20
4589982.11637179
 30
145.0
 11
408990.0452856998
 21
4589985.58692229
 31
134.0
  0
LINE
  5
174
330
1F
100
AcDbEntity
  8
GEOFENCE
100
AcDbLine
 10
408990.0452856998
 20
4589985.58692229
 30
134.0
 11
409009.8305499663
 21
4589982.664026823
 31
134.0
  0
LINE
  5
176
330
1F
100
AcDbEntity
  8
GEOFENCE
100
AcDbLine
 10
409009.8305499663
 20
4589982.664026823
 30
134.0
 11
409010.9229445454
 21
4589987.701272359
 31
128.0
  0
LINE
  5
177
330
1F
100
AcDbEntity
  8
GEOFENCE
100
AcDbLine
 10
409010.9229445454
 20
4589987.701272359
 30
128.0
 11
409030.8871513756
 21
4589986.505259968
 31
128.0
  0
LINE
  5
179
330
1F
100
AcDbEntity
  8
GEOFENCE
100
AcDbLine
 10
409030.8871513756
 20
4589986.505259968
 30
128.0
 11
409040.8692547908
 21
4589985.907253773
 31
128.0
  0
LINE
  5
17A
330
1F
100
AcDbEntity
  8
GEOFENCE
100
AcDbLine
 10
409040.8692547908
 20
4589985.907253773
 30
128.0
 11
409042.6154387766
 21
4589992.039363723
 31
122.0
  0
LINE
  5
17B
330
1F
100
AcDbEntity
  8
GEOFENCE
100
AcDbLine
 10
409042.6154387766
 20
4589992.039363723
 30
122.0
 11
409052.5882707107
 21
4589991.302734092
 31
122.0
  0
LINE
  5
17C
330
1F
100
AcDbEntity
  8
GEOFENCE
100
AcDbLine
 10
409052.5882707107
 20
4589991.302734092
 30
122.0
 11
409062.5611026448
 21
4589990.56610446
 31
122.0
  0
LINE
  5
17D
330
1F
100
AcDbEntity
  8
GEOFENCE
100
AcDbLine
 10
408982.7151523043
 20
4589981.524723697
 30
144.9786899292316
 11
408982.6641898296
 21
4589961.524789874
 31
144.9857560317789
  0
LINE
  5
17E
330
1F
100
AcDbEntity
  8
GEOFENCE
100
AcDbLine
 10
408982.6641898296
 20
4589961.524789874
 30
144.9857560317789
 11
408982.6132273549
 21
4589941.524856052
 31
144.9928221343262
  0
LINE
  5
17F
330
1F
100
AcDbEntity
  8
GEOFENCE
100
AcDbLine
 10
408982.6132273549
 20
4589941.524856052
 30
144.9928221343262
 11
408982.5622648802
 21
4589921.52492223
 31
144.9998882368735
  0
LINE
  5
180
330
1F
100
AcDbEntity
  8
GEOFENCE
100
AcDbLine
 10
408982.5622648802
 20
4589921.52492223
 30
144.9998882368735
 11
408982.3896294868
 21
4589901.525667319
 31
144.9999235486812
  0
LINE
  5
181
330
1F
100
AcDbEntity
  8
GEOFENCE
100
AcDbLine
 10
408982.3896294868
 20
4589901.525667319
 30
144.9999235486812
 11
408982.2169940934
 21
4589881.526412408
 31
144.999958860489
  0
LINE
  5
182
330
1F
100
AcDbEntity
  8
GEOFENCE
100
AcDbLine
 10
408982.2169940934
 20
4589881.526412408
 30
144.999958860489
 11
408982.0443587
 21
4589861.527157497
 31
144.9999941722967
  0
LINE
  5
184
330
1F
100
AcDbEntity
  8
GEOFENCE
100
AcDbLine
 10
408982.0443587
 20
4589861.527157497
 30
144.9999941722967
 11
408982.0158677245
 21
4589858.226569645
 31
145.0
  0
LINE
  5
185
330
1F
100
AcDbEntity
  8
GEOFENCE
100
AcDbLine
 10
408982.0158677245
 20
4589858.226569645
 30
145.0
 11
408972.2395165463
 21
4589860.329652535
 31
145.0
  0
LINE
  5
186
330
1F
100
AcDbEntity
  8
GEOFENCE
100
AcDbLine
 10
408972.2395165463
 20
4589860.329652535
 30
145.0
 11
408962.4770664013
 21
4589862.496347521
 31
145.0
  0
LINE
  5
187
330
1F
100
AcDbEntity
  8
GEOFENCE
100
AcDbLine
 10
408962.4770664013
 20
4589862.496347521
 30
145.0
 11
408952.7146162562
 21
4589864.663042508
 31
145.0
  0
LINE
  5
188
330
1F
100
AcDbEntity
  8
GEOFENCE
100
AcDbLine
 10
408952.7146162562
 20
4589864.663042508
 30
145.0
 11
408943.3013268516
 21
4589868.037947334
 31
145.0
  0
LINE
  5
189
330
1F
100
AcDbEntity
  8
GEOFENCE
100
AcDbLine
 10
408943.3013268516
 20
4589868.037947334
 30
145.0
 11
408933.8880374469
 21
4589871.412852161
 31
145.0
  0
LINE
  5
18A
330
1F
100
AcDbEntity
  8
GEOFENCE
100
AcDbLine
 10
408933.8880374469
 20
4589871.412852161
 30
145.0
 11
408924.4747480421
 21
4589874.787756986
 31
145.0
  0
LINE
  5
18B
330
1F
100
AcDbEntity
  8
GEOFENCE
100
AcDbLine
 10
408924.4747480421
 20
4589874.787756986
 30
145.0
 11
408914.4791449526
 21
4589875.084268161
 31
145.0
  0
LINE
  5
18C
330
1F
100
AcDbEntity
  8
GEOFENCE
100
AcDbLine
 10
408914.4791449526
 20
4589875.084268161
 30
145.0
 11
408904.7264719888
 21
4589877.294555487
 31
145.0
  0
LINE
  5
18E
330
1F
100
AcDbEntity
  8
GEOFENCE
100
AcDbLine
 10
408904.7264719888
 20
4589877.294555487
 30
145.0
 11
408899.3121020247
 21
4589878.521635832
 31
145.0
  0
LINE
  5
190
330
1F
100
AcDbEntity
  8
GEOFENCE
100
AcDbLine
 10
408899.3121020247
 20
4589878.521635832
 30
145.0
 11
408897.6182574092
 21
4589865.669553924
 31
172.0546646819736
  0
LINE
  5
191
330
1F
100
AcDbEntity
  8
GEOFENCE
100
AcDbLine
 10
408897.6182574092
 20
4589865.669553924
 30
172.0546646819736
 11
408897.0536425373
 21
4589861.385526622
 31
181.0728862426769
  0
LINE
  5
192
330
1F
100
AcDbEntity
  8
GEOFENCE
100
AcDbLine
 10
408897.0536425373
 20
4589861.385526622
 30
181.0728862426769
 11
408879.0903463968
 21
4589859.4757016
 31
189.656158355141
  0
LINE
  5
193
330
1F
100
AcDbEntity
  8
GEOFENCE
100
AcDbLine
 10
408879.0903463968
 20
4589859.4757016
 30
189.656158355141
 11
408861.1270502564
 21
4589857.565876579
 31
198.2394304676044
  0
LINE
  5
194
330
1F
100
AcDbEntity
  8
GEOFENCE
100
AcDbLine
 10
408861.1270502564
 20
4589857.565876579
 30
198.2394304676044
 11
408843.1637541159
 21
4589855.656051558
 31
206.8227025800667
  0
LINE
  5
195
330
1F
100
AcDbEntity
  8
GEOFENCE
100
AcDbLine
 10
408843.1637541159
 20
4589855.656051558
 30
206.8227025800667
 11
408825.2004579753
 21
4589853.746226536
 31
215.405974692527
  0
LINE
  5
197
330
1F
100
AcDbEntity
  8
GEOFENCE
100
AcDbLine
 10
408825.2004579753
 20
4589853.746226536
 30
215.405974692527
 11
408816.2188099051
 21
4589852.791314026
 31
219.6976107487802
  0
LINE
  5
198
330
1F
100
AcDbEntity
  8
GEOFENCE
100
AcDbLine
 10
408816.2188099051
 20
4589852.791314026
 30
219.6976107487802
 11
408796.395454349
 21
4589855.423931146
 31
219.3752730418953
  0
LINE
  5
199
330
1F
100
AcDbEntity
  8
GEOFENCE
100
AcDbLine
 10
408796.395454349
 20
4589855.423931146
 30
219.3752730418953
 11
408776.572098793
 21
4589858.056548267
 31
219.052935335011
  0
LINE
  5
19B
330
1F
100
AcDbEntity
  8
GEOFENCE
100
AcDbLine
 10
408776.572098793
 20
4589858.056548267
 30
219.052935335011
 11
408756.5874275151
 21
4589858.838284178
 31
219.0104750007372
  0
LINE
  5
1A9
330
1F
100
AcDbEntity
  8
OTOCAD_LAGiMi
100
AcDbLine
 10
408642.7835000001
 20
4590230.977600001
 30
181.0
 11
408622.7835000001
 21
4590230.977600001
 31
181.0
  0
LINE
  5
1AA
330
1F
100
AcDbEntity
  8
OTOCAD_LAGiMi
100
AcDbLine
 10
408622.7835000001
 20
4590230.977600001
 30
181.0
 11
408622.7835000001
 21
4590240.977600001
 31
181.0
  0
LINE
  5
1AB
330
1F
100
AcDbEntity
  8
OTOCAD_LAGiMi
100
AcDbLine
 10
408642.7835000001
 20
4590230.977600001
 30
181.0
 11
408642.7835000001
 21
4590240.977600001
 31
181.0
  0
LINE
  5
1AC
330
1F
100
AcDbEntity
  8
OTOCAD_LAGiMi
100
AcDbLine
 10
408642.7835000001
 20
4590240.977600001
 30
181.0
 11
408622.7835000001
 21
4590240.977600001
 31
181.0
  0
LINE
  5
1B0
330
1F
100
AcDbEntity
  8
GEOFENCE
100
AcDbLine
 10
408647.5396237196
 20
4590234.435106187
 30
181.0
 11
408657.5396237196
 21
4590234.435106187
 31
181.0
  0
ENDSEC
  0
SECTION
  2
OBJECTS
  0
DICTIONARY
  5
C
330
0
100
AcDbDictionary
281
     1
  3
ACAD_DETAILVIEWSTYLE
350
12E
  3
ACAD_GROUP
350
D
  3
ACAD_IMAGE_VARS
350
11E
  3
ACAD_LAYOUT
350
1A
  3
ACAD_MATERIAL
350
3B
  3
ACAD_MLEADERSTYLE
350
ED
  3
ACAD_MLINESTYLE
350
17
  3
ACAD_PLOTSETTINGS
350
19
  3
ACAD_PLOTSTYLENAME
350
E
  3
ACAD_SCALELIST
350
EE
  3
ACAD_SECTIONVIEWSTYLE
350
12F
  3
ACAD_TABLESTYLE
350
EC
  3
ACAD_VISUALSTYLE
350
2A
  3
ACDB_RECOMPOSE_DATA
350
1BB
  3
AcDbVariableDictionary
350
127
  3
APPDATA
350
11C
  0
SUN
  5
11D
330
29
100
AcDbSun
 90
        1
290
     0
 63
     7
421
 16777215
 40
1.0
291
     1
 91
  2455826
 92
 54000000
292
     0
 70
     2
 71
   256
280
     1
  0
DICTIONARY
  5
11F
330
2
100
AcDbDictionary
280
     1
281
     1
  3
ACAD_LAYERSTATES
360
120
  3
ACLYDICTIONARY
360
1A7
  0
DICTIONARY
  5
12E
102
{ACAD_REACTORS
330
C
102
}
330
C
100
AcDbDictionary
281
     1
  0
DICTIONARY
  5
D
102
{ACAD_REACTORS
330
C
102
}
330
C
100
AcDbDictionary
281
     1
  0
RASTERVARIABLES
  5
11E
102
{ACAD_REACTORS
330
C
102
}
330
C
100
AcDbRasterVariables
 90
        0
 70
     1
 71
     1
 72
     1
  0
DICTIONARY
  5
1A
102
{ACAD_REACTORS
330
C
102
}
330
C
100
AcDbDictionary
281
     1
  3
Layout1
350
1E
  3
Layout2
350
26
  3
Model
350
22
  0
DICTIONARY
  5
3B
102
{ACAD_REACTORS
330
C
102
}
330
C
100
AcDbDictionary
281
     1
  3
ByBlock
350
3D
  3
ByLayer
350
3C
  3
Global
350
3E
  0
DICTIONARY
  5
ED
102
{ACAD_REACTORS
330
C
102
}
330
C
100
AcDbDictionary
281
     1
  3
Standard
350
11B
  0
DICTIONARY
  5
17
102
{ACAD_REACTORS
330
C
102
}
330
C
100
AcDbDictionary
281
     1
  3
Standard
350
18
  0
DICTIONARY
  5
19
102
{ACAD_REACTORS
330
C
102
}
330
C
100
AcDbDictionary
281
     1
  0
ACDBDICTIONARYWDFLT
  5
E
102
{ACAD_REACTORS
330
C
102
}
330
C
100
AcDbDictionary
281
     1
  3
Normal
350
F
100
AcDbDictionaryWithDefault
340
F
  0
DICTIONARY
  5
EE
102
{ACAD_REACTORS
330
C
102
}
330
C
100
AcDbDictionary
281
     1
  3
A0
350
EF
  3
A1
350
F0
  3
A2
350
F1
  3
A3
350
F2
  3
A4
350
F3
  3
A5
350
F4
  3
A6
350
F5
  3
A7
350
F6
  3
A8
350
F7
  3
A9
350
F8
  3
B0
350
F9
  3
B1
350
FA
  3
B2
350
FB
  3
B3
350
FC
  3
B4
350
FD
  3
B5
350
FE
  3
B6
350
FF
  3
B7
350
100
  3
B8
350
101
  3
B9
350
102
  3
C0
350
103
  3
C1
350
104
  3
C2
350
105
  3
C3
350
106
  3
C4
350
107
  3
C5
350
108
  3
C6
350
109
  3
C7
350
10A
  3
C8
350
10B
  3
C9
350
10C
  3
D0
350
10D
  3
D1
350
10E
  3
D2
350
10F
  0
DICTIONARY
  5
12F
102
{ACAD_REACTORS
330
C
102
}
330
C
100
AcDbDictionary
281
     1
  0
DICTIONARY
  5
EC
102
{ACAD_REACTORS
330
C
102
}
330
C
100
AcDbDictionary
281
     1
  3
Standard
350
11A
  0
DICTIONARY
  5
2A
102
{ACAD_REACTORS
330
C
102
}
330
C
100
AcDbDictionary
281
     1
  3
2dWireframe
350
2F
  3
3D Hidden
350
31
  3
3dWireframe
350
30
  3
Basic
350
32
  3
Brighten
350
36
  3
ColorChange
350
3A
  3
Conceptual
350
34
  3
Dim
350
35
  3
EdgeColorOff
350
114
  3
Facepattern
350
39
  3
Flat
350
2B
  3
FlatWithEdges
350
2C
  3
Gouraud
350
2D
  3
GouraudWithEdges
350
2E
  3
Hidden
350
111
  3
JitterOff
350
112
  3
Linepattern
350
38
  3
OverhangOff
350
113
  3
Realistic
350
33
  3
Shaded
350
119
  3
Shaded with edges
350
118
  3
Shades of Gray
350
115
  3
Sketchy
350
116
  3
Thicken
350
37
  3
Wireframe
350
110
  3
X-Ray
350
117
  0
XRECORD
  5
1BB
102
{ACAD_REACTORS
330
C
102
}
330
C
100
AcDbXrecord
280
     1
 90
        1
330
11A
  0
DICTIONARY
  5
127
102
{ACAD_REACTORS
330
C
102
}
330
C
100
AcDbDictionary
281
     1
  3
CANNOSCALE
350
128
  3
CMLEADERSTYLE
350
12D
  3
CTABLESTYLE
350
12C
  0
DICTIONARY
  5
11C
102
{ACAD_REACTORS
330
C
102
}
330
C
100
AcDbDictionary
281
     1
  0
DICTIONARY
  5
120
102
{ACAD_REACTORS
330
11F
102
}
330
11F
100
AcDbDictionary
281
     1
  0
DICTIONARY
  5
1A7
102
{ACAD_REACTORS
330
11F
102
}
330
11F
100
AcDbDictionary
281
     1
1001
ACAD
1000
<All
  0
LAYOUT
  5
1E
102
{ACAD_REACTORS
330
1A
102
}
330
1A
100
AcDbPlotSettings
  1

  2
none_device
  4

  6

 40
0.0
 41
0.0
 42
0.0
 43
0.0
 44
0.0
 45
0.0
 46
0.0
 47
0.0
 48
0.0
 49
0.0
140
0.0
141
0.0
142
1.0
143
1.0
 70
   688
 72
     0
 73
     0
 74
     5
  7

 75
    16
 76
     0
 77
     2
 78
   300
147
1.0
148
0.0
149
0.0
100
AcDbLayout
  1
Layout1
 70
     1
 71
     1
 10
0.0
 20
0.0
 11
420.0
 21
297.0
 12
0.0
 22
0.0
 32
0.0
 14
1.000000000000000E+20
 24
1.000000000000000E+20
 34
1.000000000000000E+20
 15
-1.000000000000000E+20
 25
-1.000000000000000E+20
 35
-1.000000000000000E+20
146
0.0
 13
0.0
 23
0.0
 33
0.0
 16
1.0
 26
0.0
 36
0.0
 17
0.0
 27
1.0
 37
0.0
 76
     0
330
1B
  0
LAYOUT
  5
26
102
{ACAD_REACTORS
330
1A
102
}
330
1A
100
AcDbPlotSettings
  1

  2
none_device
  4

  6

 40
0.0
 41
0.0
 42
0.0
 43
0.0
 44
0.0
 45
0.0
 46
0.0
 47
0.0
 48
0.0
 49
0.0
140
0.0
141
0.0
142
1.0
143
1.0
 70
   688
 72
     0
 73
     0
 74
     5
  7

 75
    16
 76
     0
 77
     2
 78
   300
147
1.0
148
0.0
149
0.0
100
AcDbLayout
  1
Layout2
 70
     1
 71
     2
 10
0.0
 20
0.0
 11
0.0
 21
0.0
 12
0.0
 22
0.0
 32
0.0
 14
0.0
 24
0.0
 34
0.0
 15
0.0
 25
0.0
 35
0.0
146
0.0
 13
0.0
 23
0.0
 33
0.0
 16
1.0
 26
0.0
 36
0.0
 17
0.0
 27
1.0
 37
0.0
 76
     0
330
23
  0
LAYOUT
  5
22
102
{ACAD_REACTORS
330
1A
102
}
330
1A
100
AcDbPlotSettings
  1

  2
none_device
  4

  6

 40
0.0
 41
0.0
 42
0.0
 43
0.0
 44
0.0
 45
0.0
 46
0.0
 47
0.0
 48
0.0
 49
0.0
140
0.0
141
0.0
142
1.0
143
1.0
 70
  1712
 72
     0
 73
     0
 74
     0
  7

 75
     0
 76
     0
 77
     2
 78
   300
147
1.0
148
0.0
149
0.0
100
AcDbLayout
  1
Model
 70
     1
 71
     0
 10
0.0
 20
0.0
 11
420.0
 21
297.0
 12
0.0
 22
0.0
 32
0.0
 14
408622.7835000001
 24
4589850.777744683
 34
122.0
 15
409064.5167405187
 25
4590240.977600001
 35
219.6976107489318
146
0.0
 13
0.0
 23
0.0
 33
0.0
 16
1.0
 26
0.0
 36
0.0
 17
0.0
 27
1.0
 37
0.0
 76
     0
330
1F
331
29
  0
MATERIAL
  5
3D
102
{ACAD_REACTORS
330
3B
102
}
330
3B
100
AcDbMaterial
  1
ByBlock
 72
     1
 94
      127
  0
MATERIAL
  5
3C
102
{ACAD_REACTORS
330
3B
102
}
330
3B
100
AcDbMaterial
  1
ByLayer
 72
     1
 94
      127
  0
MATERIAL
  5
3E
102
{ACAD_REACTORS
330
3B
102
}
330
3B
100
AcDbMaterial
  1
Global
 72
     1
 94
      127
  0
MLEADERSTYLE
  5
11B
102
{ACAD_REACTORS
330
ED
102
}
330
ED
100
AcDbMLeaderStyle
179
     2
170
     2
171
     1
172
     0
 90
        2
 40
0.0
 41
0.0
173
     1
 91
-1056964608
340
14
 92
       -2
290
     1
 42
2.0
291
     1
 43
8.0
  3
Standard
341
0
 44
4.0
300

342
11
174
     1
178
     1
175
     1
176
     0
 93
-1056964608
 45
4.0
292
     0
297
     0
 46
4.0
343
0
 94
-1056964608
 47
1.0
 49
1.0
140
1.0
293
     1
141
0.0
294
     1
177
     0
142
1.0
295
     0
296
     0
143
3.75
271
     0
272
     9
273
     9
  0
MLINESTYLE
  5
18
102
{ACAD_REACTORS
330
17
102
}
330
17
100
AcDbMlineStyle
  2
Standard
 70
     0
  3

 62
   256
 51
90.0
 52
90.0
 71
     2
 49
0.5
 62
   256
  6
BYLAYER
 49
-0.5
 62
   256
  6
BYLAYER
  0
ACDBPLACEHOLDER
  5
F
102
{ACAD_REACTORS
330
E
102
}
330
E
  0
SCALE
  5
EF
102
{ACAD_REACTORS
330
EE
102
}
330
EE
100
AcDbScale
 70
     0
300
1:1
140
1.0
141
1.0
290
     1
  0
SCALE
  5
F0
102
{ACAD_REACTORS
330
EE
102
}
330
EE
100
AcDbScale
 70
     0
300
1:2
140
1.0
141
2.0
290
     0
  0
SCALE
  5
F1
102
{ACAD_REACTORS
330
EE
102
}
330
EE
100
AcDbScale
 70
     0
300
1:4
140
1.0
141
4.0
290
     0
  0
SCALE
  5
F2
102
{ACAD_REACTORS
330
EE
102
}
330
EE
100
AcDbScale
 70
     0
300
1:5
140
1.0
141
5.0
290
     0
  0
SCALE
  5
F3
102
{ACAD_REACTORS
330
EE
102
}
330
EE
100
AcDbScale
 70
     0
300
1:8
140
1.0
141
8.0
290
     0
  0
SCALE
  5
F4
102
{ACAD_REACTORS
330
EE
102
}
330
EE
100
AcDbScale
 70
     0
300
1:10
140
1.0
141
10.0
290
     0
  0
SCALE
  5
F5
102
{ACAD_REACTORS
330
EE
102
}
330
EE
100
AcDbScale
 70
     0
300
1:16
140
1.0
141
16.0
290
     0
  0
SCALE
  5
F6
102
{ACAD_REACTORS
330
EE
102
}
330
EE
100
AcDbScale
 70
     0
300
1:20
140
1.0
141
20.0
290
     0
  0
SCALE
  5
F7
102
{ACAD_REACTORS
330
EE
102
}
330
EE
100
AcDbScale
 70
     0
300
1:30
140
1.0
141
30.0
290
     0
  0
SCALE
  5
F8
102
{ACAD_REACTORS
330
EE
102
}
330
EE
100
AcDbScale
 70
     0
300
1:40
140
1.0
141
40.0
290
     0
  0
SCALE
  5
F9
102
{ACAD_REACTORS
330
EE
102
}
330
EE
100
AcDbScale
 70
     0
300
1:50
140
1.0
141
50.0
290
     0
  0
SCALE
  5
FA
102
{ACAD_REACTORS
330
EE
102
}
330
EE
100
AcDbScale
 70
     0
300
1:100
140
1.0
141
100.0
290
     0
  0
SCALE
  5
FB
102
{ACAD_REACTORS
330
EE
102
}
330
EE
100
AcDbScale
 70
     0
300
2:1
140
2.0
141
1.0
290
     0
  0
SCALE
  5
FC
102
{ACAD_REACTORS
330
EE
102
}
330
EE
100
AcDbScale
 70
     0
300
4:1
140
4.0
141
1.0
290
     0
  0
SCALE
  5
FD
102
{ACAD_REACTORS
330
EE
102
}
330
EE
100
AcDbScale
 70
     0
300
8:1
140
8.0
141
1.0
290
     0
  0
SCALE
  5
FE
102
{ACAD_REACTORS
330
EE
102
}
330
EE
100
AcDbScale
 70
     0
300
10:1
140
10.0
141
1.0
290
     0
  0
SCALE
  5
FF
102
{ACAD_REACTORS
330
EE
102
}
330
EE
100
AcDbScale
 70
     0
300
100:1
140
100.0
141
1.0
290
     0
  0
SCALE
  5
100
102
{ACAD_REACTORS
330
EE
102
}
330
EE
100
AcDbScale
 70
     0
300
1/128" = 1'-0"
140
0.0078125
141
12.0
290
     0
  0
SCALE
  5
101
102
{ACAD_REACTORS
330
EE
102
}
330
EE
100
AcDbScale
 70
     0
300
1/64" = 1'-0"
140
0.015625
141
12.0
290
     0
  0
SCALE
  5
102
102
{ACAD_REACTORS
330
EE
102
}
330
EE
100
AcDbScale
 70
     0
300
1/32" = 1'-0"
140
0.03125
141
12.0
290
     0
  0
SCALE
  5
103
102
{ACAD_REACTORS
330
EE
102
}
330
EE
100
AcDbScale
 70
     0
300
1/16" = 1'-0"
140
0.0625
141
12.0
290
     0
  0
SCALE
  5
104
102
{ACAD_REACTORS
330
EE
102
}
330
EE
100
AcDbScale
 70
     0
300
3/32" = 1'-0"
140
0.09375
141
12.0
290
     0
  0
SCALE
  5
105
102
{ACAD_REACTORS
330
EE
102
}
330
EE
100
AcDbScale
 70
     0
300
1/8" = 1'-0"
140
0.125
141
12.0
290
     0
  0
SCALE
  5
106
102
{ACAD_REACTORS
330
EE
102
}
330
EE
100
AcDbScale
 70
     0
300
3/16" = 1'-0"
140
0.1875
141
12.0
290
     0
  0
SCALE
  5
107
102
{ACAD_REACTORS
330
EE
102
}
330
EE
100
AcDbScale
 70
     0
300
1/4" = 1'-0"
140
0.25
141
12.0
290
     0
  0
SCALE
  5
108
102
{ACAD_REACTORS
330
EE
102
}
330
EE
100
AcDbScale
 70
     0
300
3/8" = 1'-0"
140
0.375
141
12.0
290
     0
  0
SCALE
  5
109
102
{ACAD_REACTORS
330
EE
102
}
330
EE
100
AcDbScale
 70
     0
300
1/2" = 1'-0"
140
0.5
141
12.0
290
     0
  0
SCALE
  5
10A
102
{ACAD_REACTORS
330
EE
102
}
330
EE
100
AcDbScale
 70
     0
300
3/4" = 1'-0"
140
0.75
141
12.0
290
     0
  0
SCALE
  5
10B
102
{ACAD_REACTORS
330
EE
102
}
330
EE
100
AcDbScale
 70
     0
300
1" = 1'-0"
140
1.0
141
12.0
290
     0
  0
SCALE
  5
10C
102
{ACAD_REACTORS
330
EE
102
}
330
EE
100
AcDbScale
 70
     0
300
1-1/2" = 1'-0"
140
1.5
141
12.0
290
     0
  0
SCALE
  5
10D
102
{ACAD_REACTORS
330
EE
102
}
330
EE
100
AcDbScale
 70
     0
300
3" = 1'-0"
140
3.0
141
12.0
290
     0
  0
SCALE
  5
10E
102
{ACAD_REACTORS
330
EE
102
}
330
EE
100
AcDbScale
 70
     0
300
6" = 1'-0"
140
6.0
141
12.0
290
     0
  0
SCALE
  5
10F
102
{ACAD_REACTORS
330
EE
102
}
330
EE
100
AcDbScale
 70
     0
300
1'-0" = 1'-0"
140
12.0
141
12.0
290
     0
  0
TABLESTYLE
  5
11A
102
{ACAD_REACTORS
330
EC
102
}
102
{ACAD_XDICTIONARY
360
1B9
102
}
330
EC
100
AcDbTableStyle
  3
Standard
 70
     0
 71
     0
 40
0.06
 41
0.06
280
     0
281
     0
  7
Standard
140
4.5
170
     2
 62
     0
 63
   257
283
     0
 90
        4
 91
        0
  1

274
    -2
284
     1
 64
     0
275
    -2
285
     1
 65
     0
276
    -2
286
     1
 66
     0
277
    -2
287
     1
 67
     0
278
    -2
288
     1
 68
     0
279
    -2
289
     1
 69
     0
  7
Standard
140
6.0
170
     5
 62
     0
 63
   257
283
     0
 90
        4
 91
        0
  1

274
    -2
284
     1
 64
     0
275
    -2
285
     1
 65
     0
276
    -2
286
     1
 66
     0
277
    -2
287
     1
 67
     0
278
    -2
288
     1
 68
     0
279
    -2
289
     1
 69
     0
  7
Standard
140
4.5
170
     5
 62
     0
 63
   257
283
     0
 90
        4
 91
        0
  1

274
    -2
284
     1
 64
     0
275
    -2
285
     1
 65
     0
276
    -2
286
     1
 66
     0
277
    -2
287
     1
 67
     0
278
    -2
288
     1
 68
     0
279
    -2
289
     1
 69
     0
  0
VISUALSTYLE
  5
2F
102
{ACAD_REACTORS
330
2A
102
}
330
2A
100
AcDbVisualStyle
  2
2dWireframe
 70
     4
177
     2
291
     0
 71
     0
176
     1
 72
     2
176
     1
 73
     0
176
     1
 90
        0
176
     1
 40
-0.6
176
     1
 41
-30.0
176
     1
 62
     5
 63
     7
421
 16777215
176
     1
 74
     1
176
     1
 91
        4
176
     1
 64
     7
176
     1
 65
   257
176
     1
 75
     1
176
     1
175
     1
176
     1
 42
1.0
176
     1
 92
        0
176
     1
 66
   257
176
     1
 43
1.0
176
     1
 76
     1
176
     1
 77
     6
176
     1
 78
     2
176
     1
 67
     7
176
     1
 79
     5
176
     1
170
     0
176
     1
171
     0
176
     1
290
     0
176
     1
 93
        1
176
     1
 44
0.0
176
     1
173
     0
176
     1
  0
VISUALSTYLE
  5
31
102
{ACAD_REACTORS
330
2A
102
}
330
2A
100
AcDbVisualStyle
  2
3D Hidden
 70
     6
177
     2
291
     0
 71
     1
176
     1
 72
     2
176
     1
 73
     2
176
     1
 90
        0
176
     1
 40
-0.6
176
     1
 41
-30.0
176
     1
 62
     5
 63
     7
421
 16777215
176
     1
 74
     2
176
     1
 91
        2
176
     1
 64
     7
176
     1
 65
   257
176
     1
 75
     2
176
     1
175
     1
176
     1
 42
40.0
176
     1
 92
        0
176
     1
 66
   257
176
     1
 43
1.0
176
     1
 76
     1
176
     1
 77
     6
176
     1
 78
     2
176
     1
 67
     7
176
     1
 79
     3
176
     1
170
     0
176
     1
171
     0
176
     1
290
     0
176
     1
 93
        1
176
     1
 44
0.0
176
     1
173
     0
176
     1
  0
VISUALSTYLE
  5
30
102
{ACAD_REACTORS
330
2A
102
}
330
2A
100
AcDbVisualStyle
  2
3dWireframe
 70
     5
177
     2
291
     0
 71
     0
176
     1
 72
     2
176
     1
 73
     0
176
     1
 90
        0
176
     1
 40
-0.6
176
     1
 41
-30.0
176
     1
 62
     5
 63
     7
421
 16777215
176
     1
 74
     1
176
     1
 91
        4
176
     1
 64
     7
176
     1
 65
   257
176
     1
 75
     1
176
     1
175
     1
176
     1
 42
1.0
176
     1
 92
        0
176
     1
 66
   257
176
     1
 43
1.0
176
     1
 76
     1
176
     1
 77
     6
176
     1
 78
     2
176
     1
 67
     7
176
     1
 79
     5
176
     1
170
     0
176
     1
171
     0
176
     1
290
     0
176
     1
 93
        1
176
     1
 44
0.0
176
     1
173
     0
176
     1
  0
VISUALSTYLE
  5
32
102
{ACAD_REACTORS
330
2A
102
}
330
2A
100
AcDbVisualStyle
  2
Basic
 70
     7
177
     2
291
     1
 71
     1
176
     1
 72
     0
176
     1
 73
     1
176
     1
 90
        0
176
     1
 40
-0.6
176
     1
 41
-30.0
176
     1
 62
     5
 63
     7
421
 16777215
176
     1
 74
     0
176
     1
 91
        4
176
     1
 64
     7
176
     1
 65
   257
176
     1
 75
     1
176
     1
175
     1
176
     1
 42
1.0
176
     1
 92
        8
176
     1
 66
     7
176
     1
 43
1.0
176
     1
 76
     1
176
     1
 77
     6
176
     1
 78
     2
176
     1
 67
     7
176
     1
 79
     5
176
     1
170
     0
176
     1
171
     0
176
     1
290
     0
176
     1
 93
        1
176
     1
 44
0.0
176
     1
173
     0
176
     1
  0
VISUALSTYLE
  5
36
102
{ACAD_REACTORS
330
2A
102
}
330
2A
100
AcDbVisualStyle
  2
Brighten
 70
    12
177
     2
291
     1
 71
     2
176
     1
 72
     2
176
     1
 73
     0
176
     1
 90
        0
176
     1
 40
-0.6
176
     1
 41
-30.0
176
     1
 62
     5
 63
     7
421
 16777215
176
     1
 74
     1
176
     1
 91
        4
176
     1
 64
     7
176
     1
 65
   257
176
     1
 75
     1
176
     1
175
     1
176
     1
 42
1.0
176
     1
 92
        8
176
     1
 66
     7
176
     1
 43
1.0
176
     1
 76
     1
176
     1
 77
     6
176
     1
 78
     2
176
     1
 67
     7
176
     1
 79
     5
176
     1
170
     0
176
     1
171
     0
176
     1
290
     0
176
     1
 93
        1
176
     1
 44
50.0
176
     1
173
     0
176
     1
  0
VISUALSTYLE
  5
3A
102
{ACAD_REACTORS
330
2A
102
}
330
2A
100
AcDbVisualStyle
  2
ColorChange
 70
    16
177
     2
291
     1
 71
     2
176
     1
 72
     2
176
     1
 73
     3
176
     1
 90
        0
176
     1
 40
-0.6
176
     1
 41
-30.0
176
     1
 62
     5
 63
     8
421
  8421504
176
     1
 74
     1
176
     1
 91
        4
176
     1
 64
     7
176
     1
 65
   257
176
     1
 75
     1
176
     1
175
     1
176
     1
 42
1.0
176
     1
 92
        8
176
     1
 66
     8
424
  8421504
176
     1
 43
1.0
176
     1
 76
     1
176
     1
 77
     6
176
     1
 78
     2
176
     1
 67
     7
176
     1
 79
     5
176
     1
170
     0
176
     1
171
     0
176
     1
290
     0
176
     1
 93
        1
176
     1
 44
0.0
176
     1
173
     0
176
     1
  0
VISUALSTYLE
  5
34
102
{ACAD_REACTORS
330
2A
102
}
330
2A
100
AcDbVisualStyle
  2
Conceptual
 70
     9
177
     2
291
     0
 71
     3
176
     1
 72
     2
176
     1
 73
     0
176
     1
 90
        0
176
     1
 40
-0.6
176
     1
 41
-30.0
176
     1
 62
     5
 63
     7
421
 16777215
176
     1
 74
     2
176
     1
 91
        2
176
     1
 64
     7
176
     1
 65
   257
176
     1
 75
     1
176
     1
175
     1
176
     1
 42
40.0
176
     1
 92
        8
176
     1
 66
     7
176
     1
 43
1.0
176
     1
 76
     1
176
     1
 77
     6
176
     1
 78
     2
176
     1
 67
     7
176
     1
 79
     3
176
     1
170
     0
176
     1
171
     0
176
     1
290
     0
176
     1
 93
        1
176
     1
 44
0.0
176
     1
173
     0
176
     1
  0
VISUALSTYLE
  5
35
102
{ACAD_REACTORS
330
2A
102
}
330
2A
100
AcDbVisualStyle
  2
Dim
 70
    11
177
     2
291
     1
 71
     2
176
     1
 72
     2
176
     1
 73
     0
176
     1
 90
        0
176
     1
 40
-0.6
176
     1
 41
-30.0
176
     1
 62
     5
 63
     7
421
 16777215
176
     1
 74
     1
176
     1
 91
        4
176
     1
 64
     7
176
     1
 65
   257
176
     1
 75
     1
176
     1
175
     1
176
     1
 42
1.0
176
     1
 92
        8
176
     1
 66
     7
176
     1
 43
1.0
176
     1
 76
     1
176
     1
 77
     6
176
     1
 78
     2
176
     1
 67
     7
176
     1
 79
     5
176
     1
170
     0
176
     1
171
     0
176
     1
290
     0
176
     1
 93
        1
176
     1
 44
-50.0
176
     1
173
     0
176
     1
  0
VISUALSTYLE
  5
114
102
{ACAD_REACTORS
330
2A
102
}
330
2A
100
AcDbVisualStyle
  2
EdgeColorOff
 70
    22
177
     2
291
     1
 71
     2
176
     0
 72
     2
176
     0
 73
     0
176
     0
 90
        0
176
     0
 40
0.6
176
     0
 41
30.0
176
     0
 62
     5
 63
     7
421
 16777215
176
     0
 74
     1
176
     0
 91
        4
176
     0
 64
     7
176
     0
 65
   257
176
     0
 75
     1
176
     0
175
     1
176
     0
 42
1.0
176
     0
 92
        8
176
     2
 66
     7
176
     0
 43
1.0
176
     0
 76
     1
176
     0
 77
     6
176
     0
 78
     2
176
     0
 67
     7
176
     0
 79
     5
176
     0
170
     0
176
     0
171
     0
176
     0
290
     0
176
     0
 93
        1
176
     0
 44
0.0
176
     0
173
     0
176
     0
  0
VISUALSTYLE
  5
39
102
{ACAD_REACTORS
330
2A
102
}
330
2A
100
AcDbVisualStyle
  2
Facepattern
 70
    15
177
     2
291
     1
 71
     2
176
     1
 72
     2
176
     1
 73
     0
176
     1
 90
        0
176
     1
 40
-0.6
176
     1
 41
-30.0
176
     1
 62
     5
 63
     7
421
 16777215
176
     1
 74
     1
176
     1
 91
        4
176
     1
 64
     7
176
     1
 65
   257
176
     1
 75
     1
176
     1
175
     1
176
     1
 42
1.0
176
     1
 92
        8
176
     1
 66
     7
176
     1
 43
1.0
176
     1
 76
     1
176
     1
 77
     6
176
     1
 78
     2
176
     1
 67
     7
176
     1
 79
     5
176
     1
170
     0
176
     1
171
     0
176
     1
290
     0
176
     1
 93
        1
176
     1
 44
0.0
176
     1
173
     0
176
     1
  0
VISUALSTYLE
  5
2B
102
{ACAD_REACTORS
330
2A
102
}
330
2A
100
AcDbVisualStyle
  2
Flat
 70
     0
177
     2
291
     1
 71
     2
176
     1
 72
     1
176
     1
 73
     1
176
     1
 90
        2
176
     1
 40
-0.6
176
     1
 41
30.0
176
     1
 62
     5
 63
     7
421
 16777215
176
     1
 74
     0
176
     1
 91
        4
176
     1
 64
     7
176
     1
 65
   257
176
     1
 75
     1
176
     1
175
     1
176
     1
 42
1.0
176
     1
 92
        8
176
     1
 66
     7
176
     1
 43
1.0
176
     1
 76
     1
176
     1
 77
     6
176
     1
 78
     2
176
     1
 67
     7
176
     1
 79
     5
176
     1
170
     0
176
     1
171
     0
176
     1
290
     0
176
     1
 93
       13
176
     1
 44
0.0
176
     1
173
     0
176
     1
  0
VISUALSTYLE
  5
2C
102
{ACAD_REACTORS
330
2A
102
}
330
2A
100
AcDbVisualStyle
  2
FlatWithEdges
 70
     1
177
     2
291
     1
 71
     2
176
     1
 72
     1
176
     1
 73
     1
176
     1
 90
        2
176
     1
 40
-0.6
176
     1
 41
30.0
176
     1
 62
     5
 63
     7
421
 16777215
176
     1
 74
     1
176
     1
 91
        4
176
     1
 64
     7
176
     1
 65
   257
176
     1
 75
     1
176
     1
175
     1
176
     1
 42
1.0
176
     1
 92
        0
176
     1
 66
   257
176
     1
 43
1.0
176
     1
 76
     1
176
     1
 77
     6
176
     1
 78
     2
176
     1
 67
     7
176
     1
 79
     5
176
     1
170
     0
176
     1
171
     0
176
     1
290
     0
176
     1
 93
       13
176
     1
 44
0.0
176
     1
173
     0
176
     1
  0
VISUALSTYLE
  5
2D
102
{ACAD_REACTORS
330
2A
102
}
330
2A
100
AcDbVisualStyle
  2
Gouraud
 70
     2
177
     2
291
     1
 71
     2
176
     1
 72
     2
176
     1
 73
     1
176
     1
 90
        2
176
     1
 40
-0.6
176
     1
 41
30.0
176
     1
 62
     5
 63
     7
421
 16777215
176
     1
 74
     0
176
     1
 91
        4
176
     1
 64
     7
176
     1
 65
   257
176
     1
 75
     1
176
     1
175
     1
176
     1
 42
1.0
176
     1
 92
        0
176
     1
 66
     7
176
     1
 43
1.0
176
     1
 76
     1
176
     1
 77
     6
176
     1
 78
     2
176
     1
 67
     7
176
     1
 79
     5
176
     1
170
     0
176
     1
171
     0
176
     1
290
     0
176
     1
 93
       13
176
     1
 44
0.0
176
     1
173
     0
176
     1
  0
VISUALSTYLE
  5
2E
102
{ACAD_REACTORS
330
2A
102
}
330
2A
100
AcDbVisualStyle
  2
GouraudWithEdges
 70
     3
177
     2
291
     1
 71
     2
176
     1
 72
     2
176
     1
 73
     1
176
     1
 90
        2
176
     1
 40
-0.6
176
     1
 41
30.0
176
     1
 62
     5
 63
     7
421
 16777215
176
     1
 74
     1
176
     1
 91
        4
176
     1
 64
     7
176
     1
 65
   257
176
     1
 75
     1
176
     1
175
     1
176
     1
 42
1.0
176
     1
 92
        0
176
     1
 66
   257
176
     1
 43
1.0
176
     1
 76
     1
176
     1
 77
     6
176
     1
 78
     2
176
     1
 67
     7
176
     1
 79
     5
176
     1
170
     0
176
     1
171
     0
176
     1
290
     0
176
     1
 93
       13
176
     1
 44
0.0
176
     1
173
     0
176
     1
  0
VISUALSTYLE
  5
111
102
{ACAD_REACTORS
330
2A
102
}
330
2A
100
AcDbVisualStyle
  2
Hidden
 70
     6
177
     2
291
     0
 71
     1
176
     1
 72
     2
176
     1
 73
     2
176
     1
 90
        0
176
     1
 40
0.6
176
     1
 41
30.0
176
     1
 62
     5
 63
     7
421
 16777215
176
     1
 74
     2
176
     1
 91
        2
176
     1
 64
     7
176
     1
 65
   257
176
     1
 75
     2
176
     1
175
     1
176
     1
 42
40.0
176
     1
 92
        0
176
     1
 66
   257
176
     1
 43
1.0
176
     1
 76
     1
176
     1
 77
     6
176
     1
 78
     2
176
     1
 67
     7
176
     1
 79
     3
176
     1
170
     0
176
     1
171
     0
176
     1
290
     0
176
     1
 93
        1
176
     1
 44
0.0
176
     1
173
     0
176
     1
  0
VISUALSTYLE
  5
112
102
{ACAD_REACTORS
330
2A
102
}
330
2A
100
AcDbVisualStyle
  2
JitterOff
 70
    20
177
     2
291
     1
 71
     2
176
     0
 72
     2
176
     0
 73
     0
176
     0
 90
        0
176
     0
 40
0.6
176
     0
 41
30.0
176
     0
 62
     5
 63
     7
421
 16777215
176
     0
 74
     1
176
     0
 91
        4
176
     0
 64
     7
176
     0
 65
   257
176
     0
 75
     1
176
     0
175
     1
176
     0
 42
1.0
176
     0
 92
       10
176
     2
 66
     7
176
     0
 43
1.0
176
     0
 76
     1
176
     0
 77
     6
176
     0
 78
     2
176
     0
 67
     7
176
     0
 79
     5
176
     0
170
     0
176
     0
171
     0
176
     0
290
     0
176
     0
 93
        1
176
     0
 44
0.0
176
     0
173
     0
176
     0
  0
VISUALSTYLE
  5
38
102
{ACAD_REACTORS
330
2A
102
}
330
2A
100
AcDbVisualStyle
  2
Linepattern
 70
    14
177
     2
291
     1
 71
     2
176
     1
 72
     2
176
     1
 73
     0
176
     1
 90
        0
176
     1
 40
-0.6
176
     1
 41
-30.0
176
     1
 62
     5
 63
     7
421
 16777215
176
     1
 74
     1
176
     1
 91
        4
176
     1
 64
     7
176
     1
 65
   257
176
     1
 75
     7
176
     1
175
     7
176
     1
 42
1.0
176
     1
 92
        8
176
     1
 66
     7
176
     1
 43
1.0
176
     1
 76
     1
176
     1
 77
     6
176
     1
 78
     2
176
     1
 67
     7
176
     1
 79
     5
176
     1
170
     0
176
     1
171
     0
176
     1
290
     0
176
     1
 93
        1
176
     1
 44
0.0
176
     1
173
     0
176
     1
  0
VISUALSTYLE
  5
113
102
{ACAD_REACTORS
330
2A
102
}
330
2A
100
AcDbVisualStyle
  2
OverhangOff
 70
    21
177
     2
291
     1
 71
     2
176
     0
 72
     2
176
     0
 73
     0
176
     0
 90
        0
176
     0
 40
0.6
176
     0
 41
30.0
176
     0
 62
     5
 63
     7
421
 16777215
176
     0
 74
     1
176
     0
 91
        4
176
     0
 64
     7
176
     0
 65
   257
176
     0
 75
     1
176
     0
175
     1
176
     0
 42
1.0
176
     0
 92
        9
176
     2
 66
     7
176
     0
 43
1.0
176
     0
 76
     1
176
     0
 77
     6
176
     0
 78
     2
176
     0
 67
     7
176
     0
 79
     5
176
     0
170
     0
176
     0
171
     0
176
     0
290
     0
176
     0
 93
        1
176
     0
 44
0.0
176
     0
173
     0
176
     0
  0
VISUALSTYLE
  5
33
102
{ACAD_REACTORS
330
2A
102
}
330
2A
100
AcDbVisualStyle
  2
Realistic
 70
     8
177
     2
291
     0
 71
     2
176
     1
 72
     2
176
     1
 73
     0
176
     1
 90
        0
176
     1
 40
-0.6
176
     1
 41
-30.0
176
     1
 62
     5
 63
     7
421
 16777215
176
     1
 74
     1
176
     1
 91
        0
176
     1
 64
     7
176
     1
 65
   257
176
     1
 75
     1
176
     1
175
     1
176
     1
 42
1.0
176
     1
 92
        8
176
     1
 66
     8
424
  7895160
176
     1
 43
1.0
176
     1
 76
     1
176
     1
 77
     6
176
     1
 78
     2
176
     1
 67
     7
176
     1
 79
     5
176
     1
170
     0
176
     1
171
     0
176
     1
290
     0
176
     1
 93
       13
176
     1
 44
0.0
176
     1
173
     0
176
     1
  0
VISUALSTYLE
  5
119
102
{ACAD_REACTORS
330
2A
102
}
330
2A
100
AcDbVisualStyle
  2
Shaded
 70
    27
177
     2
291
     0
 71
     2
176
     1
 72
     2
176
     1
 73
     1
176
     1
 90
        2
176
     1
 40
0.6
176
     1
 41
30.0
176
     1
 62
     5
 63
     7
421
 16777215
176
     1
 74
     0
176
     1
 91
        4
176
     1
 64
     7
176
     1
 65
   257
176
     1
 75
     1
176
     1
175
     1
176
     1
 42
1.0
176
     1
 92
        8
176
     1
 66
   257
176
     1
 43
1.0
176
     1
 76
     1
176
     1
 77
     6
176
     1
 78
     2
176
     1
 67
     8
425
  7895160
176
     1
 79
     3
176
     1
170
     0
176
     1
171
     0
176
     1
290
     0
176
     1
 93
        5
176
     1
 44
0.0
176
     1
173
     0
176
     1
  0
VISUALSTYLE
  5
118
102
{ACAD_REACTORS
330
2A
102
}
330
2A
100
AcDbVisualStyle
  2
Shaded with edges
 70
    26
177
     2
291
     0
 71
     2
176
     1
 72
     2
176
     1
 73
     1
176
     1
 90
        2
176
     1
 40
0.6
176
     1
 41
30.0
176
     1
 62
     5
 63
     7
421
 16777215
176
     1
 74
     1
176
     1
 91
       10
176
     1
 64
     7
176
     1
 65
   257
176
     1
 75
     2
176
     1
175
     1
176
     1
 42
1.0
176
     1
 92
        8
176
     1
 66
   257
176
     1
 43
1.0
176
     1
 76
     1
176
     1
 77
     6
176
     1
 78
     2
176
     1
 67
     7
176
     1
 79
     3
176
     1
170
     0
176
     1
171
     0
176
     1
290
     0
176
     1
 93
        5
176
     1
 44
0.0
176
     1
173
     0
176
     1
  0
VISUALSTYLE
  5
115
102
{ACAD_REACTORS
330
2A
102
}
330
2A
100
AcDbVisualStyle
  2
Shades of Gray
 70
    23
177
     2
291
     0
 71
     2
176
     1
 72
     2
176
     1
 73
     3
176
     1
 90
        0
176
     1
 40
0.6
176
     1
 41
30.0
176
     1
 62
     5
 63
     7
421
 16777215
176
     1
 74
     2
176
     1
 91
        2
176
     1
 64
     7
176
     1
 65
     7
176
     1
 75
     1
176
     1
175
     1
176
     1
 42
40.0
176
     1
 92
        8
176
     1
 66
     7
176
     1
 43
1.0
176
     1
 76
     1
176
     1
 77
     6
176
     1
 78
     2
176
     1
 67
     7
176
     1
 79
     3
176
     1
170
     0
176
     1
171
     0
176
     1
290
     0
176
     1
 93
        1
176
     1
 44
0.0
176
     1
173
     0
176
     1
  0
VISUALSTYLE
  5
116
102
{ACAD_REACTORS
330
2A
102
}
330
2A
100
AcDbVisualStyle
  2
Sketchy
 70
    24
177
     2
291
     0
 71
     1
176
     1
 72
     2
176
     1
 73
     2
176
     1
 90
        0
176
     1
 40
0.6
176
     1
 41
30.0
176
     1
 62
     5
 63
     7
421
 16777215
176
     1
 74
     2
176
     1
 91
        2
176
     1
 64
     7
176
     1
 65
     7
176
     1
 75
     1
176
     1
175
     1
176
     1
 42
40.0
176
     1
 92
       11
176
     1
 66
     7
176
     1
 43
1.0
176
     1
 76
     1
176
     1
 77
     6
176
     1
 78
     2
176
     1
 67
     7
176
     1
 79
     6
176
     1
170
     0
176
     1
171
     0
176
     1
290
     0
176
     1
 93
        1
176
     1
 44
0.0
176
     1
173
     0
176
     1
  0
VISUALSTYLE
  5
37
102
{ACAD_REACTORS
330
2A
102
}
330
2A
100
AcDbVisualStyle
  2
Thicken
 70
    13
177
     2
291
     1
 71
     2
176
     1
 72
     2
176
     1
 73
     0
176
     1
 90
        0
176
     1
 40
-0.6
176
     1
 41
-30.0
176
     1
 62
     5
 63
     7
421
 16777215
176
     1
 74
     1
176
     1
 91
        4
176
     1
 64
     7
176
     1
 65
   257
176
     1
 75
     1
176
     1
175
     1
176
     1
 42
1.0
176
     1
 92
       12
176
     1
 66
     7
176
     1
 43
1.0
176
     1
 76
     1
176
     1
 77
     6
176
     1
 78
     2
176
     1
 67
     7
176
     1
 79
     5
176
     1
170
     0
176
     1
171
     0
176
     1
290
     0
176
     1
 93
        1
176
     1
 44
0.0
176
     1
173
     0
176
     1
  0
VISUALSTYLE
  5
110
102
{ACAD_REACTORS
330
2A
102
}
330
2A
100
AcDbVisualStyle
  2
Wireframe
 70
     5
177
     2
291
     0
 71
     0
176
     1
 72
     2
176
     1
 73
     0
176
     1
 90
        0
176
     1
 40
0.6
176
     1
 41
30.0
176
     1
 62
     5
 63
     7
421
 16777215
176
     1
 74
     1
176
     1
 91
        4
176
     1
 64
     7
176
     1
 65
   257
176
     1
 75
     1
176
     1
175
     1
176
     1
 42
1.0
176
     1
 92
        0
176
     1
 66
   257
176
     1
 43
1.0
176
     1
 76
     1
176
     1
 77
     6
176
     1
 78
     2
176
     1
 67
     7
176
     1
 79
     3
176
     1
170
     0
176
     1
171
     0
176
     1
290
     0
176
     1
 93
        1
176
     1
 44
0.0
176
     1
173
     0
176
     1
  0
VISUALSTYLE
  5
117
102
{ACAD_REACTORS
330
2A
102
}
330
2A
100
AcDbVisualStyle
  2
X-Ray
 70
    25
177
     2
291
     0
 71
     2
176
     1
 72
     2
176
     1
 73
     1
176
     1
 90
        1
176
     1
 40
0.5
176
     1
 41
30.0
176
     1
 62
     5
 63
     7
421
 16777215
176
     1
 74
     1
176
     1
 91
        0
176
     1
 64
     7
176
     1
 65
   257
176
     1
 75
     1
176
     1
175
     1
176
     1
 42
1.0
176
     1
 92
        8
176
     1
 66
     7
176
     1
 43
1.0
176
     1
 76
     1
176
     1
 77
     6
176
     1
 78
     2
176
     1
 67
     7
176
     1
 79
     3
176
     1
170
     0
176
     1
171
     0
176
     1
290
     0
176
     1
 93
       13
176
     1
 44
0.0
176
     1
173
     0
176
     1
  0
DICTIONARYVAR
  5
128
102
{ACAD_REACTORS
330
127
102
}
330
127
100
DictionaryVariables
280
     0
  1
1:1
  0
DICTIONARYVAR
  5
12D
102
{ACAD_REACTORS
330
127
102
}
330
127
100
DictionaryVariables
280
     0
  1
Standard
  0
DICTIONARYVAR
  5
12C
102
{ACAD_REACTORS
330
127
102
}
330
127
100
DictionaryVariables
280
     0
  1
Standard
  0
DICTIONARY
  5
1B9
330
11A
100
AcDbDictionary
280
     1
281
     1
  3
ACAD_ROUNDTRIP_2008_TABLESTYLE_CELLSTYLEMAP
360
1BA
  0
CELLSTYLEMAP
  5
1BA
102
{ACAD_REACTORS
330
1B9
102
}
330
1B9
100
AcDbCellStyleMap
 90
        3
300
CELLSTYLE
  1
TABLEFORMAT_BEGIN
 90
        5
170
     1
 91
        0
 92
    32768
 62
   257
 93
        1
300
CONTENTFORMAT
  1
CONTENTFORMAT_BEGIN
 90
        0
 91
        0
 92
        4
 93
        0
300

 40
0.0
140
1.0
 94
        5
 62
     0
340
11
144
6.0
309
CONTENTFORMAT_END
171
     1
301
MARGIN
  1
CELLMARGIN_BEGIN
 40
1.5
 40
1.5
 40
1.5
 40
1.5
 40
1.5
 40
1.5
309
CELLMARGIN_END
 94
        6
 95
        1
302
GRIDFORMAT
  1
GRIDFORMAT_BEGIN
 90
        0
 91
        1
 62
     0
 92
       -2
340
14
 93
        0
 40
0.045
309
GRIDFORMAT_END
 95
        2
302
GRIDFORMAT
  1
GRIDFORMAT_BEGIN
 90
        0
 91
        1
 62
     0
 92
       -2
340
14
 93
        0
 40
0.045
309
GRIDFORMAT_END
 95
        4
302
GRIDFORMAT
  1
GRIDFORMAT_BEGIN
 90
        0
 91
        1
 62
     0
 92
       -2
340
14
 93
        0
 40
0.045
309
GRIDFORMAT_END
 95
        8
302
GRIDFORMAT
  1
GRIDFORMAT_BEGIN
 90
        0
 91
        1
 62
     0
 92
       -2
340
14
 93
        0
 40
0.045
309
GRIDFORMAT_END
 95
       16
302
GRIDFORMAT
  1
GRIDFORMAT_BEGIN
 90
        0
 91
        1
 62
     0
 92
       -2
340
14
 93
        0
 40
0.045
309
GRIDFORMAT_END
 95
       32
302
GRIDFORMAT
  1
GRIDFORMAT_BEGIN
 90
        0
 91
        1
 62
     0
 92
       -2
340
14
 93
        0
 40
0.045
309
GRIDFORMAT_END
309
TABLEFORMAT_END
  1
CELLSTYLE_BEGIN
 90
        1
 91
        1
300
_TITLE
309
CELLSTYLE_END
300
CELLSTYLE
  1
TABLEFORMAT_BEGIN
 90
        5
170
     1
 91
        0
 92
        0
 62
   257
 93
        1
300
CONTENTFORMAT
  1
CONTENTFORMAT_BEGIN
 90
        0
 91
        0
 92
        4
 93
        0
300

 40
0.0
140
1.0
 94
        5
 62
     0
340
11
144
4.5
309
CONTENTFORMAT_END
171
     1
301
MARGIN
  1
CELLMARGIN_BEGIN
 40
1.5
 40
1.5
 40
1.5
 40
1.5
 40
1.5
 40
1.5
309
CELLMARGIN_END
 94
        6
 95
        1
302
GRIDFORMAT
  1
GRIDFORMAT_BEGIN
 90
        0
 91
        1
 62
     0
 92
       -2
340
14
 93
        0
 40
0.045
309
GRIDFORMAT_END
 95
        2
302
GRIDFORMAT
  1
GRIDFORMAT_BEGIN
 90
        0
 91
        1
 62
     0
 92
       -2
340
14
 93
        0
 40
0.045
309
GRIDFORMAT_END
 95
        4
302
GRIDFORMAT
  1
GRIDFORMAT_BEGIN
 90
        0
 91
        1
 62
     0
 92
       -2
340
14
 93
        0
 40
0.045
309
GRIDFORMAT_END
 95
        8
302
GRIDFORMAT
  1
GRIDFORMAT_BEGIN
 90
        0
 91
        1
 62
     0
 92
       -2
340
14
 93
        0
 40
0.045
309
GRIDFORMAT_END
 95
       16
302
GRIDFORMAT
  1
GRIDFORMAT_BEGIN
 90
        0
 91
        1
 62
     0
 92
       -2
340
14
 93
        0
 40
0.045
309
GRIDFORMAT_END
 95
       32
302
GRIDFORMAT
  1
GRIDFORMAT_BEGIN
 90
        0
 91
        1
 62
     0
 92
       -2
340
14
 93
        0
 40
0.045
309
GRIDFORMAT_END
309
TABLEFORMAT_END
  1
CELLSTYLE_BEGIN
 90
        2
 91
        1
300
_HEADER
309
CELLSTYLE_END
300
CELLSTYLE
  1
TABLEFORMAT_BEGIN
 90
        5
170
     1
 91
        0
 92
        0
 62
   257
 93
        1
300
CONTENTFORMAT
  1
CONTENTFORMAT_BEGIN
 90
        0
 91
        0
 92
        4
 93
        0
300

 40
0.0
140
1.0
 94
        2
 62
     0
340
11
144
4.5
309
CONTENTFORMAT_END
171
     1
301
MARGIN
  1
CELLMARGIN_BEGIN
 40
1.5
 40
1.5
 40
1.5
 40
1.5
 40
1.5
 40
1.5
309
CELLMARGIN_END
 94
        6
 95
        1
302
GRIDFORMAT
  1
GRIDFORMAT_BEGIN
 90
        0
 91
        1
 62
     0
 92
       -2
340
14
 93
        0
 40
0.045
309
GRIDFORMAT_END
 95
        2
302
GRIDFORMAT
  1
GRIDFORMAT_BEGIN
 90
        0
 91
        1
 62
     0
 92
       -2
340
14
 93
        0
 40
0.045
309
GRIDFORMAT_END
 95
        4
302
GRIDFORMAT
  1
GRIDFORMAT_BEGIN
 90
        0
 91
        1
 62
     0
 92
       -2
340
14
 93
        0
 40
0.045
309
GRIDFORMAT_END
 95
        8
302
GRIDFORMAT
  1
GRIDFORMAT_BEGIN
 90
        0
 91
        1
 62
     0
 92
       -2
340
14
 93
        0
 40
0.045
309
GRIDFORMAT_END
 95
       16
302
GRIDFORMAT
  1
GRIDFORMAT_BEGIN
 90
        0
 91
        1
 62
     0
 92
       -2
340
14
 93
        0
 40
0.045
309
GRIDFORMAT_END
 95
       32
302
GRIDFORMAT
  1
GRIDFORMAT_BEGIN
 90
        0
 91
        1
 62
     0
 92
       -2
340
14
 93
        0
 40
0.045
309
GRIDFORMAT_END
309
TABLEFORMAT_END
  1
CELLSTYLE_BEGIN
 90
        3
 91
        2
300
_DATA
309
CELLSTYLE_END
  0
ENDSEC
  0
EOF
